<svg id="svg" version="1.1" xmlns="http://www.w3.org/2000/svg" xmlns:xlink="http://www.w3.org/1999/xlink" width="400" height="399.5726495726496" viewBox="0, 0, 400,399.5726495726496"><g id="svgg"><path id="path0" d="M184.815 12.441 C 168.849 13.572,141.645 19.967,129.132 25.531 C 127.670 26.181,124.325 27.647,121.699 28.788 C 110.616 33.605,91.606 44.981,84.953 50.776 C 84.053 51.561,82.687 52.627,81.918 53.145 C 75.476 57.488,59.919 72.973,52.739 82.189 C 48.789 87.259,41.951 96.869,40.137 99.900 C 39.282 101.329,38.173 103.054,37.673 103.734 C 37.173 104.414,36.763 105.080,36.763 105.213 C 36.763 105.346,35.429 107.846,33.798 110.769 C 32.167 113.692,29.721 118.601,28.362 121.678 C 27.002 124.755,25.752 127.453,25.583 127.672 C 25.216 128.151,23.510 132.925,20.526 141.826 C -4.012 215.032,20.910 298.198,81.987 346.928 C 140.825 393.871,223.694 401.200,288.796 365.219 C 291.564 363.689,293.919 362.438,294.029 362.438 C 294.140 362.438,294.787 362.018,295.467 361.505 C 296.147 360.993,297.962 359.839,299.500 358.942 C 302.084 357.435,309.068 352.458,316.726 346.666 C 330.633 336.146,351.291 312.829,358.864 299.101 C 359.591 297.782,360.668 295.984,361.256 295.105 C 366.151 287.785,374.413 269.344,377.994 257.742 C 379.114 254.116,380.197 250.758,380.402 250.281 C 381.574 247.546,384.392 232.407,386.228 218.981 C 389.464 195.316,385.106 160.684,375.693 135.265 C 365.159 106.817,344.819 76.948,324.276 59.756 C 322.737 58.468,320.939 56.902,320.280 56.274 C 318.710 54.781,310.942 48.844,305.894 45.280 C 297.635 39.449,282.168 30.860,274.126 27.639 C 272.478 26.978,269.960 25.904,268.531 25.251 C 248.200 15.956,212.441 10.484,184.815 12.441 M218.581 27.756 C 234.866 29.795,256.407 35.518,267.532 40.762 C 283.892 48.472,289.231 51.566,302.789 61.192 C 313.628 68.888,330.101 85.371,338.080 96.503 C 348.972 111.703,356.383 125.405,361.530 139.860 C 362.743 143.267,364.057 146.863,364.449 147.852 C 366.137 152.100,369.795 168.988,371.201 179.021 C 372.897 191.115,372.818 210.382,371.027 221.978 C 367.501 244.798,363.497 258.062,354.622 276.324 C 350.592 284.616,344.540 294.861,340.782 299.754 C 340.168 300.553,338.660 302.609,337.430 304.324 C 322.291 325.424,296.944 345.726,270.689 357.780 C 209.691 385.786,136.047 374.969,85.514 330.582 C 30.598 282.344,11.800 208.056,37.050 139.061 C 39.228 133.109,44.520 121.481,46.658 117.947 C 47.411 116.703,48.481 114.785,49.035 113.686 C 62.075 87.815,94.888 57.410,124.540 43.723 C 126.702 42.724,128.923 41.664,129.475 41.367 C 140.615 35.368,168.197 28.562,187.612 27.023 C 192.333 26.648,213.790 27.156,218.581 27.756 M205.031 50.849 C 202.494 60.957,199.105 75.759,199.266 76.024 C 199.366 76.189,200.234 76.324,201.195 76.324 C 203.103 76.324,202.970 76.502,203.801 72.827 L 204.276 70.729 206.134 70.735 C 209.489 70.745,209.661 70.881,209.889 73.718 C 210.151 76.984,210.264 77.123,212.653 77.123 L 214.670 77.123 214.395 73.427 C 214.244 71.394,213.870 67.527,213.565 64.834 C 213.259 62.141,212.792 57.169,212.527 53.785 L 212.045 47.634 210.618 47.398 C 209.833 47.268,208.464 47.160,207.575 47.157 L 205.959 47.153 205.031 50.849 M183.017 49.094 C 183.017 50.888,184.496 71.928,184.840 75.025 C 185.066 77.068,185.105 77.123,186.342 77.117 C 189.143 77.105,189.531 76.796,189.291 74.766 C 189.171 73.755,188.690 67.802,188.222 61.538 C 187.070 46.146,187.394 47.552,184.997 47.552 L 183.017 47.552 183.017 49.094 M159.341 52.055 C 157.095 52.579,155.844 53.062,155.844 53.405 C 155.844 54.215,160.853 76.595,161.622 79.221 C 162.349 81.704,162.551 81.816,165.066 81.117 L 166.495 80.720 165.598 76.729 C 165.105 74.534,164.490 72.099,164.232 71.318 C 163.621 69.466,163.893 68.869,165.507 68.520 C 170.756 67.387,172.355 64.269,170.800 58.200 C 169.091 51.532,166.817 50.312,159.341 52.055 M209.171 61.838 L 209.463 67.133 207.452 67.133 C 206.347 67.133,205.360 66.998,205.260 66.833 C 205.061 66.505,207.002 57.133,207.854 54.310 L 208.386 52.547 208.632 54.545 C 208.768 55.644,209.010 58.926,209.171 61.838 M165.121 55.844 C 167.020 58.024,167.180 64.113,165.349 64.513 C 162.787 65.073,162.896 65.171,161.975 61.502 C 160.622 56.115,160.625 55.802,162.038 55.498 C 164.041 55.066,164.487 55.116,165.121 55.844 M254.727 60.240 C 254.135 61.503,252.522 65.055,251.144 68.132 C 249.765 71.209,247.879 75.345,246.952 77.323 C 246.025 79.301,244.930 81.771,244.519 82.813 L 243.771 84.707 245.346 85.510 C 247.432 86.574,247.648 86.538,248.286 85.015 C 250.704 79.246,253.884 74.730,254.850 75.695 C 255.062 75.908,254.713 78.893,253.468 87.525 C 253.271 88.892,253.328 88.966,255.303 89.890 C 257.837 91.078,257.426 92.119,258.833 80.944 C 259.886 72.577,260.140 71.301,260.858 70.755 C 264.487 67.992,269.307 64.095,269.318 63.916 C 269.325 63.795,268.513 63.299,267.515 62.813 L 265.699 61.931 262.819 64.358 C 261.236 65.693,258.993 67.597,257.835 68.588 C 254.793 71.195,254.731 70.722,257.373 65.027 C 260.182 58.972,260.087 59.734,258.158 58.749 C 255.976 57.636,255.938 57.653,254.727 60.240 M135.564 60.450 C 134.191 61.143,133.067 61.903,133.067 62.140 C 133.067 62.634,135.823 70.811,138.219 77.423 C 139.114 79.895,139.685 81.918,139.487 81.918 C 139.168 81.918,134.290 75.120,129.505 68.007 C 128.572 66.620,127.562 65.390,127.260 65.275 C 126.839 65.113,122.220 67.101,121.552 67.732 C 121.454 67.825,134.479 93.324,134.885 93.834 C 134.942 93.904,135.735 93.581,136.649 93.114 L 138.310 92.267 134.345 84.595 C 130.429 77.016,128.572 73.127,128.869 73.127 C 129.004 73.127,133.592 79.343,139.667 87.757 L 141.718 90.599 143.187 89.845 C 143.995 89.431,144.655 88.892,144.655 88.647 C 144.655 88.080,140.265 74.616,138.891 70.968 C 138.319 69.450,137.944 68.117,138.057 68.004 C 138.350 67.711,138.101 67.265,143.429 77.622 C 146.114 82.842,148.395 87.113,148.497 87.113 C 148.965 87.113,151.847 85.466,151.833 85.207 C 151.803 84.608,138.721 59.362,138.398 59.278 C 138.213 59.231,136.938 59.758,135.564 60.450 M275.164 84.369 C 263.679 96.095,264.453 95.034,266.382 96.406 L 267.829 97.436 269.879 95.280 L 271.928 93.125 274.026 94.556 C 276.428 96.194,276.483 96.421,275.125 99.101 C 274.575 100.185,274.126 101.348,274.126 101.685 C 274.126 102.069,273.760 102.298,273.146 102.298 C 269.238 102.298,268.596 105.862,272.105 108.077 C 274.041 109.300,273.988 109.296,274.546 108.254 C 274.920 107.555,274.852 107.317,274.138 106.816 C 272.143 105.420,274.478 102.526,276.553 103.822 C 277.311 104.295,291.062 77.941,290.402 77.281 C 289.805 76.685,285.923 73.926,285.681 73.926 C 285.522 73.926,280.789 78.626,275.164 84.369 M105.954 78.370 C 104.454 79.473,104.323 79.691,104.819 80.268 C 105.128 80.626,107.863 84.066,110.898 87.912 C 113.933 91.758,117.345 96.074,118.480 97.502 C 119.616 98.931,121.041 100.768,121.648 101.584 L 122.751 103.069 124.013 101.886 C 124.707 101.235,125.410 100.702,125.574 100.701 C 126.300 100.697,125.697 99.620,123.177 96.422 C 116.315 87.715,113.615 84.248,111.026 80.819 C 107.827 76.581,108.165 76.744,105.954 78.370 M281.920 86.001 C 280.213 89.360,278.667 92.272,278.485 92.472 C 278.082 92.914,274.841 90.763,275.034 90.182 C 275.227 89.603,284.685 79.566,284.869 79.745 C 284.954 79.827,283.627 82.643,281.920 86.001 M302.080 89.329 L 300.738 90.714 302.426 92.434 L 304.113 94.154 297.012 100.959 C 293.106 104.702,288.921 108.677,287.712 109.793 L 285.514 111.821 286.892 113.253 C 288.732 115.167,288.532 115.250,293.349 110.589 C 295.678 108.337,299.708 104.463,302.306 101.981 L 307.028 97.468 308.738 99.147 L 310.448 100.825 311.868 99.743 C 313.522 98.481,313.634 97.836,312.370 96.832 C 311.867 96.432,309.850 94.396,307.889 92.308 C 303.411 87.539,303.681 87.677,302.080 89.329 M86.808 95.892 L 85.504 97.411 87.008 98.714 C 88.991 100.433,101.372 112.237,104.368 115.264 L 106.720 117.642 110.902 113.473 C 115.582 108.810,115.546 108.883,113.879 107.286 L 112.673 106.130 109.884 108.898 L 107.095 111.665 104.796 109.440 C 87.924 93.111,88.696 93.693,86.808 95.892 M191.009 95.738 C 190.240 95.828,187.902 96.093,185.814 96.328 C 118.693 103.885,76.603 175.370,101.906 238.837 C 126.160 299.673,201.930 323.719,255.944 287.721 C 262.004 283.683,263.298 282.717,267.732 278.926 C 323.728 231.046,312.278 139.685,246.154 106.738 C 229.238 98.310,207.038 93.882,191.009 95.738 M186.514 199.513 C 186.599 281.405,186.527 297.361,186.075 297.535 C 184.104 298.291,166.755 293.506,159.341 290.161 L 156.643 288.945 156.643 199.621 L 156.643 110.298 159.341 109.064 C 166.328 105.868,182.464 101.294,185.614 101.617 C 186.411 101.698,186.414 102.029,186.514 199.513 M223.576 103.860 C 229.737 105.404,234.204 106.933,239.506 109.313 L 243.756 111.221 243.756 199.601 L 243.756 287.981 239.261 289.987 C 232.806 292.868,218.711 297.204,217.682 296.625 C 217.330 296.427,217.269 102.944,217.621 102.592 C 217.753 102.460,218.068 102.421,218.321 102.505 C 218.574 102.589,220.939 103.199,223.576 103.860 M320.378 111.331 C 312.729 121.433,311.177 122.969,304.420 127.133 L 300.548 129.518 301.620 131.293 C 302.961 133.513,302.340 133.656,308.589 129.685 L 313.910 126.302 322.290 124.255 C 332.109 121.855,331.184 122.337,329.847 120.316 C 328.551 118.358,329.277 118.385,323.388 120.080 C 316.779 121.983,316.863 122.077,320.982 117.388 C 325.387 112.373,325.127 112.997,323.690 110.909 C 322.154 108.677,322.412 108.644,320.378 111.331 M74.525 112.117 C 70.538 114.191,68.736 119.174,70.838 122.319 C 72.572 124.913,87.987 134.648,90.824 134.940 C 93.054 135.170,94.909 134.126,96.579 131.703 C 99.931 126.839,98.874 124.849,89.710 118.771 C 79.265 111.844,76.978 110.841,74.525 112.117 M82.118 119.141 C 84.535 120.710,87.682 122.705,89.111 123.576 C 93.901 126.495,94.638 127.633,93.048 129.655 C 91.674 131.401,91.274 131.226,80.320 124.088 C 78.891 123.157,76.981 121.932,76.074 121.365 C 74.132 120.151,73.575 118.677,74.516 117.240 C 75.620 115.555,77.203 115.951,82.118 119.141 M126.274 199.600 C 126.274 239.211,126.128 265.378,125.906 265.515 C 125.703 265.640,124.053 263.897,122.238 261.642 C 92.969 225.273,92.969 173.928,122.238 137.558 C 124.053 135.303,125.703 133.561,125.906 133.686 C 126.128 133.823,126.274 159.990,126.274 199.600 M278.028 139.960 C 304.591 174.898,304.591 224.302,278.028 259.241 C 276.483 261.274,275.062 262.937,274.872 262.937 C 274.678 262.937,274.525 235.064,274.525 199.600 C 274.525 164.136,274.678 136.264,274.872 136.264 C 275.062 136.264,276.483 137.927,278.028 139.960 M68.264 155.358 C 67.092 156.409,65.541 157.753,64.817 158.344 L 63.501 159.419 59.831 157.057 C 55.361 154.182,55.453 154.100,57.533 159.113 L 59.231 163.205 57.291 164.819 C 56.223 165.707,54.629 167.119,53.749 167.956 L 52.148 169.479 53.347 169.276 C 54.006 169.164,56.056 169.018,57.902 168.952 L 61.258 168.831 62.830 172.627 C 64.931 177.700,64.876 177.699,66.114 172.707 L 67.199 168.335 69.264 168.087 C 70.399 167.951,72.262 167.838,73.403 167.836 C 76.443 167.831,76.292 167.366,72.488 165.034 C 68.314 162.474,68.439 162.799,69.644 157.658 C 70.187 155.342,70.578 153.447,70.513 153.447 C 70.448 153.447,69.436 154.307,68.264 155.358 M338.262 156.244 C 334.450 159.590,334.717 159.569,330.470 156.852 C 326.490 154.306,326.418 154.359,328.212 158.487 C 330.395 163.509,330.494 162.954,326.878 165.981 C 323.458 168.843,323.027 169.512,324.775 169.239 C 325.380 169.145,327.313 168.972,329.071 168.855 L 332.268 168.641 333.179 171.011 C 334.599 174.704,335.714 177.107,335.913 176.907 C 336.014 176.807,336.549 174.838,337.102 172.531 L 338.109 168.338 340.183 168.088 C 341.324 167.951,343.191 167.838,344.332 167.836 C 347.372 167.831,347.221 167.366,343.418 165.034 C 341.536 163.880,339.910 162.711,339.805 162.437 C 339.649 162.030,340.862 155.858,341.473 153.946 C 341.707 153.216,341.726 153.203,338.262 156.244 M130.408 316.860 C 126.535 320.228,127.334 320.161,123.192 317.462 C 119.044 314.758,119.056 314.748,120.839 319.355 C 122.668 324.078,122.806 323.505,119.081 326.649 C 115.122 329.989,115.025 329.768,120.380 329.606 L 124.875 329.471 126.518 333.618 C 127.421 335.900,128.255 337.608,128.371 337.414 C 128.487 337.221,128.996 335.201,129.501 332.926 C 130.007 330.650,130.611 328.729,130.845 328.657 C 131.078 328.585,133.022 328.407,135.165 328.262 C 139.885 327.941,139.878 327.986,135.670 325.346 C 131.457 322.704,131.700 323.287,132.895 318.691 C 134.220 313.594,134.188 313.571,130.408 316.860 M264.538 314.537 C 264.540 314.838,264.899 316.580,265.337 318.407 C 266.487 323.203,266.608 322.906,262.438 325.539 L 258.741 327.872 262.937 328.203 C 265.245 328.385,267.325 328.592,267.560 328.662 C 267.795 328.733,268.402 330.652,268.909 332.927 C 270.124 338.376,270.156 338.382,271.962 333.451 L 273.518 329.204 278.018 329.485 C 283.378 329.820,283.295 330.002,279.321 326.649 C 275.594 323.504,275.739 324.109,277.571 319.382 C 279.247 315.057,279.184 314.795,276.851 316.382 C 275.902 317.028,274.267 318.053,273.219 318.661 L 271.314 319.765 268.691 317.425 C 265.126 314.245,264.535 313.834,264.538 314.537 M165.371 320.689 C 164.001 321.433,162.703 323.553,162.011 326.176 C 161.368 328.613,161.541 328.880,163.839 328.989 L 165.563 329.071 166.081 327.081 C 167.122 323.072,171.041 323.005,171.020 326.996 C 171.003 330.357,168.890 333.067,163.399 336.775 C 159.990 339.077,158.080 342.125,157.281 346.538 L 157.013 348.021 159.126 348.624 C 161.790 349.384,168.431 350.849,169.211 350.849 C 169.724 350.849,170.923 347.813,170.555 347.445 C 170.486 347.375,168.661 346.869,166.501 346.321 C 161.994 345.177,162.061 345.216,162.389 343.906 C 162.774 342.373,164.395 340.695,167.783 338.321 C 173.549 334.280,175.689 330.802,175.344 326.030 C 175.012 321.434,169.467 318.464,165.371 320.689 M226.162 320.979 C 222.873 322.640,221.887 325.478,223.065 329.885 L 223.553 331.709 225.163 331.443 C 227.401 331.073,227.350 331.159,227.095 328.108 C 226.871 325.445,226.897 325.343,227.964 324.644 C 230.252 323.145,232.284 325.534,232.070 329.471 C 231.942 331.828,231.561 332.791,228.211 339.217 C 226.499 342.501,226.723 351.611,228.503 351.086 C 228.870 350.977,231.239 350.429,233.766 349.867 C 239.992 348.483,240.770 348.254,240.694 347.823 C 240.659 347.619,240.522 346.778,240.390 345.954 C 240.101 344.149,239.938 344.130,235.362 345.389 C 229.848 346.904,229.445 345.454,233.298 337.963 C 239.265 326.361,235.105 316.461,226.162 320.979 M185.947 323.693 C 184.361 324.180,182.753 326.057,182.265 327.990 C 181.509 330.988,180.520 347.398,180.990 349.144 C 182.432 354.497,190.910 355.352,193.479 350.403 C 194.187 349.039,195.815 334.783,195.798 330.096 C 195.781 325.368,190.877 322.181,185.947 323.693 M207.042 323.677 C 202.362 324.782,201.891 326.416,202.736 338.599 C 203.643 351.685,204.605 353.646,210.119 353.646 C 216.667 353.646,217.694 351.315,216.777 338.535 C 215.749 324.210,214.280 321.968,207.042 323.677 M190.008 327.527 C 191.279 328.015,191.357 329.458,190.630 339.006 C 189.854 349.206,189.727 349.650,187.592 349.650 C 184.781 349.650,184.712 349.230,185.614 337.662 C 185.932 333.596,186.196 329.955,186.202 329.570 C 186.228 327.985,188.301 326.872,190.008 327.527 M210.895 328.172 C 211.707 329.036,212.985 340.370,212.987 346.725 C 212.988 350.392,208.770 351.012,208.037 347.453 C 207.686 345.747,206.604 333.069,206.598 330.592 C 206.591 327.496,208.990 326.144,210.895 328.172 " stroke="none" fill="#054d94" fill-rule="evenodd"></path><path id="path1" d="M182.617 7.591 C 171.177 8.500,152.155 11.415,151.449 12.367 C 151.339 12.515,149.271 13.143,146.853 13.763 C 141.249 15.199,132.129 18.008,131.868 18.379 C 131.687 18.636,130.477 19.109,123.498 21.648 C 120.848 22.612,106.175 29.765,105.408 30.466 C 105.106 30.743,104.237 31.303,103.478 31.710 C 96.438 35.490,95.340 36.146,94.248 37.227 C 93.879 37.592,92.977 38.178,92.243 38.528 C 91.510 38.879,88.530 40.963,85.622 43.160 C 82.714 45.356,80.180 47.153,79.992 47.153 C 79.804 47.153,78.857 47.961,77.887 48.949 C 76.917 49.937,75.135 51.464,73.926 52.344 C 72.717 53.223,70.954 54.843,70.008 55.942 C 69.062 57.042,68.091 57.942,67.851 57.942 C 67.611 57.942,65.187 60.235,62.464 63.037 C 59.742 65.839,56.352 69.320,54.931 70.772 C 53.510 72.223,52.348 73.574,52.348 73.773 C 52.348 73.973,51.179 75.369,49.750 76.877 C 48.322 78.385,47.153 79.745,47.153 79.900 C 47.153 80.336,43.551 84.876,42.920 85.235 C 42.611 85.410,42.358 85.724,42.358 85.932 C 42.358 86.141,41.503 87.530,40.460 89.021 C 39.416 90.511,38.234 92.315,37.833 93.029 C 37.433 93.743,36.707 94.756,36.221 95.281 C 35.735 95.806,35.083 96.745,34.773 97.368 C 33.713 99.502,31.452 103.296,31.003 103.696 C 30.756 103.916,29.320 106.613,27.812 109.690 C 26.303 112.767,24.859 115.554,24.604 115.884 C 23.843 116.865,18.781 129.327,18.781 130.219 C 18.781 130.467,18.624 130.669,18.431 130.669 C 17.957 130.669,13.896 143.466,12.979 147.852 C 12.818 148.621,12.551 149.341,12.386 149.451 C 11.985 149.716,10.251 157.609,9.226 163.836 C 5.884 184.124,5.456 207.111,8.034 227.772 C 9.246 237.488,11.774 250.549,12.443 250.549 C 12.632 250.549,12.787 250.835,12.787 251.183 C 12.787 252.982,17.773 268.779,18.602 269.609 C 18.921 269.927,19.181 270.425,19.181 270.715 C 19.181 271.195,20.803 275.412,23.287 281.390 C 23.806 282.638,24.417 283.896,24.646 284.187 C 24.875 284.478,26.267 287.139,27.739 290.101 C 29.212 293.063,30.553 295.581,30.719 295.695 C 31.045 295.920,33.301 299.795,34.472 302.140 C 34.868 302.932,35.814 304.281,36.576 305.137 C 37.338 305.993,37.962 306.850,37.962 307.040 C 37.962 307.231,38.951 308.799,40.160 310.524 C 41.369 312.249,42.358 313.837,42.358 314.053 C 42.358 314.269,42.611 314.590,42.922 314.765 C 43.644 315.175,46.753 319.075,46.753 319.572 C 46.753 319.779,47.576 320.782,48.581 321.802 C 49.586 322.821,51.174 324.641,52.109 325.846 C 53.044 327.051,54.831 329.078,56.079 330.352 C 65.951 340.424,72.408 346.615,74.725 348.231 C 75.495 348.767,76.830 349.935,77.693 350.827 C 78.555 351.718,79.436 352.448,79.649 352.448 C 80.023 352.448,82.861 354.589,84.515 356.119 C 85.612 357.133,91.786 361.239,92.215 361.239 C 92.406 361.239,93.269 361.870,94.133 362.642 C 94.997 363.413,96.334 364.360,97.103 364.746 C 99.743 366.071,103.297 368.146,103.696 368.596 C 103.916 368.843,106.612 370.287,109.688 371.804 C 112.763 373.322,115.518 374.802,115.810 375.094 C 116.102 375.386,116.594 375.624,116.903 375.624 C 117.212 375.624,118.413 376.071,119.572 376.618 C 122.022 377.774,128.425 380.242,129.991 380.635 C 130.584 380.784,131.069 381.043,131.069 381.210 C 131.069 381.665,144.241 385.723,148.651 386.627 C 149.421 386.785,150.143 387.059,150.257 387.236 C 150.558 387.707,161.490 389.843,168.432 390.787 C 189.475 393.651,213.922 393.441,233.966 390.225 C 239.866 389.279,247.923 387.578,248.152 387.232 C 248.262 387.065,249.341 386.702,250.549 386.424 C 255.832 385.210,267.333 381.679,267.333 381.271 C 267.333 381.113,268.367 380.643,269.630 380.225 C 274.265 378.693,282.517 375.189,282.517 374.753 C 282.517 374.573,282.700 374.426,282.924 374.426 C 283.475 374.426,293.794 369.326,294.079 368.913 C 294.204 368.732,296.352 367.434,298.854 366.029 C 301.355 364.624,303.603 363.273,303.849 363.028 C 304.095 362.782,306.094 361.401,308.292 359.958 C 310.490 358.515,312.737 356.965,313.287 356.513 C 313.836 356.060,315.724 354.599,317.483 353.264 C 319.241 351.930,321.729 349.896,323.013 348.746 C 324.296 347.595,325.555 346.585,325.810 346.502 C 326.065 346.419,327.367 345.250,328.703 343.905 C 330.039 342.559,333.312 339.391,335.976 336.863 C 338.639 334.336,340.828 332.061,340.839 331.808 C 340.850 331.556,341.860 330.434,343.083 329.317 C 344.305 328.199,345.993 326.371,346.832 325.254 C 347.671 324.137,349.103 322.381,350.015 321.352 C 352.215 318.867,355.644 314.222,355.644 313.727 C 355.644 313.510,355.959 313.097,356.344 312.810 C 357.310 312.089,358.777 310.058,361.050 306.294 C 362.112 304.535,363.188 302.917,363.441 302.697 C 364.028 302.188,368.032 295.045,368.032 294.509 C 368.032 294.287,368.404 293.734,368.859 293.279 C 369.314 292.823,370.867 289.901,372.310 286.785 C 373.752 283.669,375.045 281.029,375.183 280.919 C 375.688 280.515,378.316 273.976,380.303 268.179 C 380.877 266.505,381.460 265.045,381.598 264.935 C 382.231 264.432,387.201 246.500,387.209 244.689 C 387.211 244.212,387.391 243.763,387.608 243.690 C 388.065 243.536,389.684 234.335,390.584 226.773 C 392.529 210.426,392.528 189.674,390.581 173.227 C 389.805 166.673,388.072 156.537,387.679 156.257 C 387.515 156.140,386.949 154.066,386.420 151.648 C 385.258 146.339,382.230 135.857,381.758 135.513 C 381.571 135.376,380.913 133.736,380.295 131.868 C 378.566 126.641,375.695 119.396,375.228 119.081 C 375.066 118.971,373.741 116.307,372.285 113.162 C 370.829 110.016,369.341 107.146,368.979 106.784 C 368.617 106.422,368.072 105.532,367.769 104.806 C 367.466 104.080,366.525 102.354,365.678 100.970 C 364.831 99.587,364.013 98.061,363.861 97.579 C 363.708 97.097,363.440 96.703,363.266 96.703 C 362.953 96.703,360.040 92.535,360.040 92.086 C 360.040 91.757,357.773 88.500,357.020 87.747 C 356.677 87.403,355.798 86.235,355.068 85.150 C 354.338 84.065,352.146 81.259,350.197 78.914 C 348.248 76.569,346.384 74.258,346.054 73.779 C 344.124 70.969,329.001 56.097,323.377 51.476 C 322.003 50.348,320.879 49.273,320.879 49.088 C 320.879 48.903,320.697 48.751,320.473 48.751 C 320.136 48.751,315.457 45.314,313.283 43.469 C 312.004 42.384,308.609 40.053,306.811 39.024 C 305.776 38.433,304.342 37.412,303.625 36.757 C 302.907 36.101,302.157 35.564,301.960 35.564 C 301.762 35.564,300.302 34.776,298.715 33.813 C 297.129 32.850,295.437 31.937,294.955 31.784 C 294.473 31.631,293.770 31.175,293.393 30.771 C 293.016 30.367,290.280 28.908,287.313 27.530 C 284.346 26.151,281.708 24.815,281.452 24.561 C 281.024 24.138,273.539 21.082,268.731 19.367 C 267.632 18.975,266.643 18.538,266.533 18.394 C 266.131 17.870,255.008 14.502,249.351 13.192 C 248.142 12.912,246.973 12.545,246.753 12.376 C 245.768 11.620,232.106 9.245,222.577 8.173 C 215.924 7.424,189.543 7.040,182.617 7.591 M208.591 11.996 C 228.879 13.237,248.013 17.002,263.170 22.735 C 273.382 26.597,284.858 31.853,290.692 35.341 C 292.240 36.267,294.583 37.620,295.898 38.348 C 298.936 40.031,309.798 47.286,311.350 48.669 C 311.996 49.245,313.226 50.180,314.082 50.747 C 320.454 54.965,335.230 69.117,343.448 78.873 C 349.139 85.628,357.784 97.763,360.852 103.303 C 361.581 104.618,362.929 106.953,363.847 108.492 C 369.013 117.142,376.377 134.620,379.430 145.473 C 380.447 149.089,381.623 153.217,382.044 154.645 C 383.581 159.872,385.387 170.343,386.489 180.420 C 387.206 186.978,387.202 214.011,386.483 219.980 C 385.166 230.913,383.514 240.357,382.044 245.355 C 381.623 246.783,380.447 250.911,379.430 254.527 C 376.416 265.241,367.641 286.003,363.631 291.908 C 363.034 292.787,362.085 294.417,361.523 295.531 C 360.315 297.923,352.759 309.450,351.455 310.889 C 350.957 311.439,349.870 312.877,349.040 314.086 C 339.290 328.274,316.211 349.339,299.301 359.483 C 297.213 360.735,294.605 362.339,293.506 363.047 C 290.560 364.945,279.414 370.607,274.982 372.457 C 272.863 373.341,269.960 374.585,268.531 375.222 C 266.106 376.302,260.219 378.277,250.749 381.189 C 242.910 383.600,235.566 384.999,217.982 387.433 C 193.229 390.859,152.716 385.237,129.870 375.205 C 128.442 374.578,125.532 373.338,123.404 372.450 C 82.352 355.314,43.027 315.782,26.389 274.925 C 25.450 272.617,24.364 270.100,23.977 269.331 C 23.289 267.963,20.457 259.528,18.009 251.548 C 7.149 216.159,8.963 170.536,22.681 134.066 C 26.072 125.052,33.752 108.949,36.232 105.657 C 36.744 104.977,37.163 104.306,37.163 104.167 C 37.163 103.281,44.884 91.770,50.121 84.849 C 58.271 74.076,73.517 58.800,83.760 51.141 C 85.274 50.009,87.126 48.603,87.874 48.018 C 90.309 46.112,99.634 39.942,102.298 38.474 C 103.726 37.687,105.794 36.467,106.893 35.763 C 109.995 33.778,119.873 28.950,126.274 26.291 C 152.599 15.353,181.487 10.337,208.591 11.996 M191.009 27.423 C 158.732 29.032,127.977 39.419,101.099 57.787 C 85.432 68.493,68.770 84.934,58.419 99.900 C 57.279 101.548,56.005 103.347,55.587 103.896 C 53.729 106.344,47.771 116.641,44.836 122.478 C 20.474 170.918,20.402 228.735,44.642 277.123 C 47.681 283.189,54.420 294.764,56.096 296.796 C 56.598 297.404,57.791 299.071,58.747 300.500 C 62.663 306.352,72.789 318.170,78.777 323.876 C 176.592 417.093,335.605 370.422,367.408 239.161 C 378.160 194.782,368.956 142.419,343.948 105.694 C 343.050 104.376,341.519 102.128,340.547 100.699 C 323.203 75.227,293.159 51.243,264.735 40.180 C 262.098 39.154,258.861 37.877,257.542 37.342 C 241.165 30.704,212.105 26.372,191.009 27.423 M212.260 47.099 C 212.524 47.345,215.112 77.529,214.888 77.753 C 214.827 77.814,213.674 77.764,212.326 77.641 L 209.875 77.419 209.721 74.695 C 209.538 71.459,209.744 71.702,206.913 71.383 L 204.636 71.127 204.166 73.518 C 203.907 74.833,203.493 76.151,203.246 76.446 C 202.632 77.181,198.601 76.877,198.601 76.096 C 198.601 75.336,201.679 62.152,202.373 59.940 C 202.683 58.951,203.512 55.624,204.215 52.547 C 204.918 49.471,205.555 46.845,205.631 46.713 C 205.806 46.405,211.897 46.760,212.260 47.099 M187.605 47.253 C 187.745 47.674,189.811 75.547,189.810 77.023 C 189.810 77.370,189.038 77.522,187.282 77.522 L 184.755 77.522 184.288 72.028 C 184.032 69.006,183.561 63.566,183.242 59.940 C 182.922 56.314,182.607 51.998,182.540 50.350 L 182.418 47.353 184.016 47.110 C 186.695 46.702,187.430 46.732,187.605 47.253 M167.439 51.496 C 171.134 53.477,173.015 63.189,170.322 66.389 C 169.183 67.742,166.592 69.108,165.135 69.122 C 164.640 69.127,164.236 69.197,164.236 69.277 C 164.236 69.587,166.235 78.187,166.581 79.367 C 167.064 81.013,166.824 81.271,164.276 81.845 C 161.611 82.445,162.021 83.055,160.387 76.057 C 157.913 65.463,155.055 52.953,155.050 52.698 C 155.026 51.479,165.509 50.461,167.439 51.496 M206.860 60.755 C 206.248 63.871,205.803 66.466,205.871 66.522 C 206.713 67.216,209.367 66.958,209.213 66.195 C 209.117 65.722,208.933 63.528,208.803 61.321 C 208.397 54.444,208.117 54.362,206.860 60.755 M162.537 55.834 C 161.218 56.030,161.237 55.658,162.309 60.475 L 163.185 64.406 164.404 64.162 C 166.563 63.730,166.866 63.102,166.294 60.244 C 165.549 56.521,164.691 55.514,162.537 55.834 M258.342 58.242 C 260.609 59.375,260.609 59.277,258.305 64.124 C 255.452 70.126,255.570 70.269,260.022 66.213 C 261.296 65.052,263.070 63.536,263.965 62.843 L 265.593 61.583 267.662 62.541 C 270.394 63.807,270.425 63.740,265.175 67.951 L 260.620 71.606 260.169 74.864 C 259.922 76.656,259.355 80.460,258.911 83.317 C 258.467 86.174,258.014 89.096,257.905 89.810 C 257.670 91.343,257.497 91.369,254.919 90.260 C 253.660 89.719,252.947 89.166,252.947 88.732 C 252.947 88.141,253.668 82.494,254.341 77.815 L 254.557 76.309 253.202 77.197 C 252.141 77.892,251.522 78.869,250.345 81.700 C 249.519 83.688,248.602 85.706,248.308 86.184 L 247.773 87.053 245.573 85.984 C 242.975 84.722,242.966 84.674,244.707 81.209 C 245.450 79.731,246.820 76.723,247.753 74.525 C 248.685 72.328,250.389 68.551,251.538 66.134 C 252.687 63.716,254.048 60.703,254.561 59.437 C 255.574 56.939,255.671 56.909,258.342 58.242 M145.554 71.688 C 153.061 86.204,152.803 85.455,150.695 86.640 C 148.184 88.051,148.222 88.090,144.060 79.888 C 141.932 75.694,140.118 72.336,140.029 72.425 C 139.940 72.514,141.125 76.226,142.661 80.674 C 145.978 90.276,145.878 89.225,143.566 90.226 C 141.304 91.205,141.527 91.319,139.190 87.992 C 135.570 82.839,131.357 77.123,131.180 77.123 C 131.081 77.123,132.724 80.443,134.831 84.501 C 139.319 93.146,139.175 92.434,136.693 93.691 L 134.724 94.689 129.500 84.527 C 126.627 78.938,124.276 74.282,124.276 74.181 C 124.276 74.080,123.544 72.706,122.649 71.127 C 120.679 67.650,120.678 67.652,124.312 65.743 L 127.225 64.212 127.848 65.082 C 128.191 65.561,128.987 66.622,129.617 67.442 C 130.248 68.261,131.851 70.542,133.181 72.512 C 135.514 75.967,138.262 79.720,138.262 79.451 C 138.262 79.151,135.008 69.427,133.685 65.775 C 132.897 63.600,132.301 61.777,132.360 61.724 C 132.942 61.201,137.804 58.750,138.262 58.747 C 138.646 58.745,141.268 63.398,145.554 71.688 M288.482 75.201 C 291.321 77.160,291.313 77.120,289.551 80.619 C 288.803 82.103,285.837 88.112,282.959 93.972 L 277.727 104.628 276.585 104.196 C 274.235 103.310,272.846 105.027,274.710 106.514 C 275.826 107.404,275.826 107.407,275.077 108.435 C 274.116 109.753,273.842 109.741,271.642 108.284 C 268.152 105.972,268.592 101.898,272.331 101.898 C 273.234 101.898,276.067 96.833,275.448 96.326 C 275.270 96.179,274.434 95.553,273.589 94.934 L 272.053 93.808 269.941 95.893 L 267.830 97.978 266.083 96.712 C 263.767 95.035,263.014 96.129,274.725 84.159 C 286.411 72.216,285.251 72.971,288.482 75.201 M110.194 79.044 C 111.130 80.295,113.198 82.972,114.789 84.993 C 116.381 87.014,118.846 90.161,120.268 91.986 C 121.690 93.811,123.713 96.375,124.764 97.682 C 127.082 100.568,127.085 100.221,124.723 101.985 L 122.773 103.440 121.722 102.344 C 121.144 101.740,119.909 100.235,118.977 98.998 C 118.045 97.760,115.485 94.469,113.287 91.683 C 111.089 88.898,108.072 85.066,106.583 83.169 L 103.875 79.720 105.535 78.222 C 107.711 76.259,108.171 76.340,110.194 79.044 M279.423 85.881 L 275.330 90.243 276.584 91.298 C 277.273 91.878,277.964 92.208,278.118 92.031 C 278.458 91.641,283.749 81.518,283.612 81.519 C 283.560 81.519,281.675 83.482,279.423 85.881 M308.711 92.560 C 314.322 98.492,314.143 98.093,312.096 100.092 L 310.482 101.668 308.787 99.778 L 307.093 97.887 299.500 105.309 C 295.325 109.391,291.136 113.378,290.191 114.171 L 288.475 115.611 286.895 114.068 C 284.738 111.962,284.255 112.690,294.323 102.897 L 303.361 94.106 301.930 92.444 C 300.155 90.382,300.157 90.250,301.989 88.740 C 303.908 87.159,303.243 86.781,308.711 92.560 M97.958 102.291 L 107.133 111.075 109.557 108.485 C 112.398 105.447,112.472 105.431,114.425 107.430 L 115.924 108.966 111.409 113.648 L 106.893 118.330 99.102 110.813 C 94.816 106.679,89.871 101.911,88.113 100.217 L 84.915 97.138 86.697 95.322 C 87.676 94.324,88.546 93.506,88.630 93.506 C 88.714 93.506,92.911 97.459,97.958 102.291 M206.896 95.300 C 234.055 96.621,265.132 113.093,281.605 134.899 C 285.388 139.907,285.642 140.273,288.556 144.948 C 307.158 174.786,309.288 212.892,294.135 244.723 C 291.436 250.391,287.163 257.706,284.448 261.304 C 283.716 262.274,282.454 263.964,281.644 265.059 C 267.901 283.642,241.851 299.167,217.002 303.582 C 166.474 312.561,112.924 280.300,99.123 232.567 C 98.647 230.919,97.980 228.851,97.642 227.972 C 94.386 219.513,92.976 197.798,94.865 185.215 C 98.841 158.738,113.816 132.589,133.341 118.031 C 134.920 116.854,136.319 115.718,136.450 115.507 C 137.073 114.498,149.523 107.222,154.845 104.756 C 169.067 98.166,187.611 94.179,200.400 94.959 C 201.499 95.027,204.422 95.180,206.896 95.300 M185.015 102.162 C 181.146 102.763,173.016 104.471,172.028 104.891 C 171.369 105.171,168.633 106.148,165.949 107.062 C 163.265 107.975,160.253 109.084,159.256 109.525 L 157.443 110.327 157.443 199.600 L 157.443 288.874 159.341 289.723 C 165.473 292.468,177.149 295.774,185.115 297.020 L 186.214 297.192 186.214 199.545 C 186.214 145.839,186.169 101.923,186.114 101.953 C 186.059 101.982,185.564 102.077,185.015 102.162 M218.182 199.600 C 218.182 276.540,218.283 296.103,218.681 296.098 C 221.463 296.065,239.161 290.141,242.058 288.274 L 242.957 287.694 242.957 199.600 L 242.957 111.507 242.058 110.927 C 239.122 109.034,221.500 103.136,218.681 103.103 C 218.283 103.098,218.182 122.661,218.182 199.600 M323.983 110.452 C 325.614 113.180,325.801 112.555,322.043 116.923 C 320.266 118.989,318.963 120.676,319.146 120.672 C 319.330 120.669,321.279 120.132,323.477 119.481 C 328.718 117.926,328.852 117.937,330.170 120.023 C 330.774 120.979,331.269 121.861,331.269 121.981 C 331.269 122.294,326.415 123.750,319.602 125.480 C 316.057 126.381,313.047 127.396,312.009 128.040 C 311.063 128.627,308.770 130.089,306.912 131.287 C 302.827 133.924,302.968 133.916,301.328 131.589 L 300.004 129.711 301.151 128.778 C 301.782 128.265,304.186 126.686,306.494 125.269 C 310.046 123.088,311.099 122.187,313.362 119.389 C 314.833 117.571,316.766 115.185,317.659 114.086 C 318.552 112.987,319.950 111.234,320.766 110.190 C 322.589 107.856,322.421 107.842,323.983 110.452 M80.238 112.285 C 81.182 112.713,83.250 113.949,84.833 115.030 C 86.417 116.112,89.241 117.936,91.109 119.084 C 97.904 123.258,99.543 126.125,97.681 130.582 C 95.104 136.751,90.913 136.838,81.918 130.912 C 79.830 129.537,76.704 127.526,74.972 126.443 C 70.033 123.359,68.644 120.866,69.763 117.099 C 71.226 112.171,75.579 110.171,80.238 112.285 M75.447 116.983 C 73.470 119.285,73.467 119.282,85.500 126.875 C 91.364 130.576,91.963 130.767,92.955 129.254 C 93.979 127.691,93.271 126.775,88.857 123.950 C 86.689 122.562,83.117 120.274,80.919 118.865 C 76.518 116.043,76.314 115.973,75.447 116.983 M122.986 137.363 C 97.483 168.931,93.608 211.997,113.101 247.227 C 115.939 252.357,120.952 259.623,124.214 263.337 L 125.442 264.735 125.458 199.700 C 125.467 163.931,125.405 134.665,125.320 134.665 C 125.235 134.665,124.185 135.879,122.986 137.363 M274.936 199.700 L 274.947 262.338 276.129 260.939 C 285.297 250.093,293.566 231.846,296.096 216.879 C 300.782 189.169,293.832 160.961,276.997 139.361 C 276.013 138.097,275.143 137.063,275.066 137.063 C 274.988 137.063,274.930 165.250,274.936 199.700 M71.121 154.146 C 71.116 154.530,70.692 156.485,70.177 158.490 L 69.241 162.136 71.384 163.434 C 72.562 164.149,73.526 164.857,73.526 165.010 C 73.526 165.162,74.156 165.587,74.925 165.953 C 78.181 167.506,75.896 168.631,69.487 168.631 C 67.313 168.631,67.532 168.247,66.121 174.525 C 65.433 177.589,64.321 178.513,63.717 176.523 C 63.567 176.029,62.903 174.208,62.242 172.476 L 61.041 169.328 56.495 169.608 C 51.514 169.915,50.358 169.232,53.047 167.572 C 53.651 167.199,55.071 166.005,56.203 164.919 C 58.514 162.701,58.501 162.936,56.594 158.273 C 54.650 153.518,55.244 153.218,60.202 156.450 L 63.584 158.655 66.570 156.051 C 69.548 153.454,71.136 152.789,71.121 154.146 M342.050 154.146 C 342.046 154.530,341.621 156.485,341.106 158.490 L 340.170 162.136 342.313 163.434 C 343.491 164.149,344.458 164.846,344.460 164.984 C 344.463 165.122,345.189 165.582,346.074 166.006 C 349.253 167.529,347.328 168.507,340.974 168.596 L 338.492 168.631 338.095 170.130 C 337.877 170.954,337.509 172.527,337.278 173.626 C 337.046 174.725,336.765 176.029,336.653 176.523 C 336.177 178.614,335.074 177.525,333.615 173.526 L 332.194 169.630 327.506 169.744 C 322.838 169.858,322.818 169.854,322.947 168.955 C 323.019 168.458,323.503 167.840,324.023 167.582 C 324.544 167.323,325.919 166.174,327.079 165.029 C 329.448 162.689,329.432 162.941,327.523 158.273 C 325.609 153.593,326.166 153.251,330.831 156.244 C 334.688 158.718,334.494 158.729,337.785 155.837 C 340.522 153.432,342.065 152.820,342.050 154.146 M134.268 314.386 C 134.270 314.770,133.887 316.755,133.417 318.795 C 132.947 320.836,132.631 322.552,132.715 322.608 C 132.799 322.665,134.306 323.665,136.064 324.831 C 141.131 328.191,141.087 328.473,135.424 328.912 C 130.610 329.285,131.312 328.697,129.942 333.498 C 128.366 339.022,127.754 339.064,125.832 333.782 L 124.408 329.870 119.946 330.019 C 114.437 330.202,114.387 330.064,118.562 326.229 L 121.657 323.386 120.169 319.627 C 117.791 313.620,118.082 313.343,123.259 316.683 C 127.374 319.338,126.691 319.379,130.070 316.269 C 132.871 313.690,134.263 313.065,134.268 314.386 M268.499 316.293 C 272.034 319.378,271.282 319.309,274.925 316.883 C 280.308 313.298,280.849 314.414,277.251 321.678 L 276.558 323.077 279.738 326.084 C 284.007 330.121,283.967 330.254,278.580 329.927 L 274.243 329.663 272.778 333.198 C 270.254 339.285,269.722 339.323,268.352 333.509 C 267.241 328.801,267.808 329.286,262.978 328.912 C 257.303 328.472,257.256 328.181,262.333 324.875 C 264.189 323.666,265.710 322.498,265.711 322.278 C 265.713 322.058,265.363 320.350,264.935 318.482 C 263.594 312.633,264.012 312.376,268.499 316.293 M170.665 320.125 C 179.242 321.964,177.819 331.408,167.832 338.917 C 161.455 343.712,161.311 344.628,166.740 345.852 C 168.886 346.337,170.745 346.835,170.870 346.961 C 171.153 347.244,170.267 351.648,169.927 351.648 C 169.792 351.648,168.411 351.303,166.859 350.881 C 165.306 350.459,162.307 349.730,160.193 349.262 L 156.350 348.410 156.892 345.827 C 157.815 341.422,160.214 338.220,165.035 334.959 C 170.638 331.169,172.820 324.476,168.452 324.476 C 167.618 324.476,166.348 326.612,166.017 328.571 C 165.790 329.917,165.633 330.107,164.894 329.931 C 164.422 329.817,163.342 329.599,162.495 329.445 C 160.981 329.171,160.958 329.140,161.193 327.720 C 162.267 321.219,165.116 318.935,170.665 320.125 M232.982 320.579 C 237.734 322.976,238.255 330.404,234.153 337.263 C 231.749 341.283,230.727 344.811,231.779 345.461 C 232.005 345.601,233.888 345.328,235.964 344.855 C 240.224 343.885,240.373 343.918,240.942 345.968 C 241.560 348.195,241.486 348.389,239.860 348.792 C 239.036 348.996,236.384 349.633,233.966 350.207 C 231.548 350.782,229.186 351.357,228.715 351.485 C 227.563 351.800,226.406 348.503,226.387 344.855 C 226.375 342.480,226.587 341.813,228.860 337.063 C 232.085 330.324,232.482 326.242,230.060 324.715 C 228.034 323.437,226.821 325.718,227.518 329.497 L 227.818 331.121 225.766 331.594 C 224.638 331.855,223.574 332.068,223.401 332.068 C 222.841 332.068,222.062 327.328,222.316 325.472 C 222.958 320.786,228.421 318.280,232.982 320.579 M192.446 323.638 C 196.069 325.284,196.477 327.479,195.472 339.921 C 194.480 352.189,193.758 353.633,188.447 353.971 C 184.042 354.252,181.017 352.374,180.376 348.960 C 180.074 347.356,180.830 333.465,181.434 329.509 C 182.294 323.872,187.201 321.256,192.446 323.638 M212.793 323.506 C 215.983 325.020,216.602 327.207,217.420 339.860 C 218.188 351.721,216.982 354.046,210.062 354.046 C 203.949 354.046,202.912 351.286,201.952 332.468 L 201.717 327.872 202.969 326.012 C 204.934 323.093,209.479 321.933,212.793 323.506 M187.919 328.111 C 186.854 328.504,186.800 328.825,186.009 339.292 C 185.337 348.180,185.388 348.729,186.919 349.113 C 189.268 349.703,189.764 347.960,190.607 336.159 C 191.176 328.189,190.795 327.047,187.919 328.111 M208.333 328.096 C 206.920 328.622,206.897 328.944,207.596 338.579 C 208.305 348.369,208.535 349.258,210.352 349.245 C 212.532 349.229,212.619 348.669,211.948 339.007 C 211.186 328.027,210.893 327.142,208.333 328.096 " stroke="none" fill="#fbfbfb" fill-rule="evenodd"></path><path id="path2" d="M197.303 27.068 C 198.457 27.149,200.345 27.149,201.499 27.068 C 202.652 26.987,201.708 26.921,199.401 26.921 C 197.093 26.921,196.149 26.987,197.303 27.068 M207.293 47.035 C 207.787 47.131,208.596 47.131,209.091 47.035 C 209.585 46.940,209.181 46.862,208.192 46.862 C 207.203 46.862,206.798 46.940,207.293 47.035 M69.109 63.836 L 67.732 65.335 69.231 63.958 C 70.626 62.676,70.913 62.338,70.608 62.338 C 70.541 62.338,69.867 63.012,69.109 63.836 M63.536 69.331 C 62.566 70.320,61.862 71.129,61.971 71.129 C 62.081 71.129,62.965 70.320,63.936 69.331 C 64.907 68.342,65.611 67.532,65.501 67.532 C 65.391 67.532,64.507 68.342,63.536 69.331 M321.479 77.922 C 323.889 80.340,325.950 82.318,326.060 82.318 C 326.170 82.318,324.288 80.340,321.878 77.922 C 319.468 75.504,317.406 73.526,317.296 73.526 C 317.186 73.526,319.068 75.504,321.479 77.922 M77.308 77.223 L 75.325 79.321 77.423 77.338 C 79.372 75.495,79.704 75.125,79.406 75.125 C 79.342 75.125,78.398 76.069,77.308 77.223 M138.528 80.091 C 138.408 80.404,138.568 80.876,138.885 81.139 C 139.293 81.477,139.461 81.486,139.461 81.168 C 139.461 80.921,139.286 80.719,139.073 80.719 C 138.861 80.719,138.790 80.450,138.916 80.120 C 139.043 79.790,139.057 79.520,138.947 79.520 C 138.837 79.520,138.648 79.777,138.528 80.091 M269.918 89.211 L 267.532 91.708 270.030 89.323 C 271.404 88.011,272.527 86.888,272.527 86.826 C 272.527 86.530,272.133 86.891,269.918 89.211 M309.091 93.506 C 310.173 94.605,311.149 95.504,311.259 95.504 C 311.369 95.504,310.573 94.605,309.491 93.506 C 308.408 92.408,307.433 91.508,307.323 91.508 C 307.213 91.508,308.009 92.408,309.091 93.506 M302.273 95.604 L 301.099 96.903 302.398 95.729 C 303.112 95.084,303.696 94.500,303.696 94.431 C 303.696 94.122,303.367 94.394,302.273 95.604 M193.107 95.391 C 193.711 95.483,194.700 95.483,195.305 95.391 C 195.909 95.300,195.415 95.225,194.206 95.225 C 192.997 95.225,192.502 95.300,193.107 95.391 M202.703 95.392 C 203.310 95.483,204.209 95.481,204.701 95.386 C 205.192 95.291,204.695 95.216,203.596 95.219 C 202.498 95.222,202.095 95.300,202.703 95.392 M187.912 95.780 C 188.297 95.880,188.926 95.880,189.311 95.780 C 189.695 95.679,189.381 95.597,188.611 95.597 C 187.842 95.597,187.527 95.679,187.912 95.780 M95.904 100.899 C 97.098 102.108,98.165 103.097,98.274 103.097 C 98.384 103.097,97.497 102.108,96.304 100.899 C 95.110 99.690,94.043 98.701,93.933 98.701 C 93.824 98.701,94.710 99.690,95.904 100.899 M295.293 102.198 L 292.707 104.895 295.405 102.309 C 297.910 99.907,298.285 99.500,297.990 99.500 C 297.929 99.500,296.715 100.714,295.293 102.198 M217.564 117.682 C 217.564 126.034,217.617 129.507,217.682 125.401 C 217.747 121.295,217.747 114.461,217.682 110.216 C 217.617 105.971,217.564 109.331,217.564 117.682 M93.706 105.495 C 94.789 106.593,95.764 107.493,95.874 107.493 C 95.984 107.493,95.188 106.593,94.106 105.495 C 93.024 104.396,92.048 103.497,91.938 103.497 C 91.828 103.497,92.624 104.396,93.706 105.495 M297.477 106.793 L 296.304 108.092 297.602 106.918 C 298.317 106.273,298.901 105.688,298.901 105.620 C 298.901 105.311,298.571 105.583,297.477 106.793 M103.896 108.492 C 105.312 109.920,106.560 111.089,106.670 111.089 C 106.780 111.089,105.712 109.920,104.296 108.492 C 102.880 107.063,101.631 105.894,101.522 105.894 C 101.412 105.894,102.480 107.063,103.896 108.492 M113.087 106.419 C 113.087 106.488,113.671 107.072,114.386 107.717 L 115.684 108.891 114.511 107.592 C 113.417 106.382,113.087 106.110,113.087 106.419 M287.088 109.990 L 285.914 111.289 287.213 110.115 C 287.927 109.470,288.511 108.885,288.511 108.816 C 288.511 108.508,288.182 108.779,287.088 109.990 M101.499 112.887 C 102.244 113.656,102.944 114.286,103.054 114.286 C 103.164 114.286,102.644 113.656,101.898 112.887 C 101.153 112.118,100.453 111.489,100.343 111.489 C 100.233 111.489,100.753 112.118,101.499 112.887 M243.531 122.278 C 243.531 128.102,243.587 130.485,243.655 127.572 C 243.724 124.660,243.724 119.895,243.655 116.983 C 243.587 114.071,243.531 116.454,243.531 122.278 M120.454 130.370 L 119.281 131.668 120.579 130.495 C 121.790 129.401,122.062 129.071,121.753 129.071 C 121.684 129.071,121.100 129.655,120.454 130.370 M22.022 135.909 C 21.776 136.615,21.645 137.262,21.730 137.348 C 21.816 137.433,22.087 136.926,22.333 136.219 C 22.579 135.513,22.711 134.865,22.625 134.780 C 22.540 134.694,22.269 135.202,22.022 135.909 M274.720 199.600 C 274.720 234.106,274.768 248.163,274.825 230.838 C 274.883 213.513,274.883 185.281,274.825 168.100 C 274.767 150.920,274.720 165.095,274.720 199.600 M217.577 200.200 C 217.577 232.398,217.624 245.569,217.682 229.471 C 217.740 213.372,217.740 187.028,217.682 170.929 C 217.624 154.830,217.577 168.002,217.577 200.200 M243.551 200.400 C 243.551 232.488,243.598 245.673,243.656 229.702 C 243.714 213.730,243.714 187.476,243.656 171.360 C 243.598 155.244,243.551 168.312,243.551 200.400 M54.724 166.533 L 53.347 168.032 54.845 166.655 C 56.240 165.373,56.527 165.035,56.222 165.035 C 56.155 165.035,55.481 165.709,54.724 166.533 M325.653 166.533 L 324.276 168.032 325.774 166.655 C 327.169 165.373,327.456 165.035,327.151 165.035 C 327.085 165.035,326.410 165.709,325.653 166.533 M67.384 168.548 C 67.277 168.722,67.806 168.792,68.559 168.704 C 69.313 168.616,69.930 168.474,69.930 168.388 C 69.930 168.087,67.578 168.235,67.384 168.548 M338.313 168.548 C 338.206 168.722,338.735 168.792,339.489 168.704 C 340.242 168.616,340.859 168.474,340.859 168.388 C 340.859 168.087,338.507 168.235,338.313 168.548 M26.482 189.011 C 26.482 190.000,26.560 190.405,26.656 189.910 C 26.751 189.416,26.751 188.606,26.656 188.112 C 26.560 187.617,26.482 188.022,26.482 189.011 M303.811 195.205 C 303.814 196.304,303.891 196.706,303.983 196.098 C 304.075 195.491,304.072 194.592,303.978 194.100 C 303.883 193.609,303.808 194.106,303.811 195.205 M26.127 200.000 C 26.127 202.637,26.192 203.664,26.270 202.282 C 26.349 200.900,26.348 198.742,26.269 197.487 C 26.190 196.232,26.126 197.363,26.127 200.000 M100.442 199.600 C 100.440 201.578,100.508 202.438,100.592 201.511 C 100.676 200.583,100.677 198.965,100.594 197.914 C 100.511 196.864,100.443 197.622,100.442 199.600 M93.999 203.397 C 93.999 204.166,94.081 204.481,94.182 204.096 C 94.282 203.711,94.282 203.082,94.182 202.697 C 94.081 202.313,93.999 202.627,93.999 203.397 M303.816 204.595 C 303.816 205.804,303.891 206.299,303.983 205.694 C 304.074 205.090,304.074 204.101,303.983 203.497 C 303.891 202.892,303.816 203.387,303.816 204.595 M26.488 210.789 C 26.491 211.888,26.569 212.290,26.660 211.683 C 26.752 211.075,26.750 210.176,26.655 209.685 C 26.560 209.193,26.485 209.690,26.488 210.789 M303.389 210.190 C 303.389 210.959,303.472 211.274,303.572 210.889 C 303.673 210.504,303.673 209.875,303.572 209.491 C 303.472 209.106,303.389 209.421,303.389 210.190 M21.807 263.337 C 21.954 263.886,22.241 264.605,22.445 264.935 C 22.702 265.352,22.734 265.230,22.548 264.535 C 22.401 263.986,22.114 263.267,21.911 262.937 C 21.653 262.520,21.622 262.642,21.807 263.337 M217.563 282.118 C 217.563 290.140,217.617 293.422,217.682 289.411 C 217.747 285.400,217.747 278.836,217.682 274.825 C 217.617 270.814,217.563 274.096,217.563 282.118 M243.529 277.722 C 243.529 283.107,243.586 285.310,243.655 282.617 C 243.724 279.925,243.724 275.519,243.655 272.827 C 243.586 270.135,243.529 272.338,243.529 277.722 M120.679 269.930 C 121.425 270.699,122.125 271.329,122.235 271.329 C 122.345 271.329,121.824 270.699,121.079 269.930 C 120.333 269.161,119.633 268.531,119.524 268.531 C 119.414 268.531,119.934 269.161,120.679 269.930 M273.305 274.026 L 271.928 275.524 273.427 274.147 C 274.821 272.866,275.109 272.527,274.804 272.527 C 274.737 272.527,274.063 273.202,273.305 274.026 M68.332 313.412 C 68.332 313.481,68.916 314.065,69.630 314.710 L 70.929 315.884 69.755 314.585 C 68.661 313.375,68.332 313.103,68.332 313.412 M322.470 321.179 L 318.681 325.075 322.577 321.287 C 326.196 317.768,326.655 317.283,326.366 317.283 C 326.306 317.283,324.553 319.036,322.470 321.179 M77.323 322.877 C 78.181 323.756,78.973 324.476,79.083 324.476 C 79.193 324.476,78.581 323.756,77.722 322.877 C 76.864 321.998,76.072 321.279,75.962 321.279 C 75.852 321.279,76.464 321.998,77.323 322.877 M187.717 323.160 C 188.214 323.255,188.933 323.252,189.315 323.152 C 189.697 323.052,189.291 322.973,188.412 322.978 C 187.532 322.982,187.220 323.064,187.717 323.160 M208.691 323.153 C 209.076 323.253,209.705 323.253,210.090 323.153 C 210.475 323.052,210.160 322.970,209.391 322.970 C 208.621 322.970,208.307 323.052,208.691 323.153 M59.341 326.074 C 60.199 326.953,60.991 327.672,61.101 327.672 C 61.211 327.672,60.599 326.953,59.740 326.074 C 58.882 325.195,58.090 324.476,57.980 324.476 C 57.870 324.476,58.482 325.195,59.341 326.074 M83.516 328.597 C 83.516 328.665,84.101 329.250,84.815 329.895 L 86.114 331.069 84.940 329.770 C 83.846 328.560,83.516 328.288,83.516 328.597 M335.040 330.170 L 333.866 331.469 335.165 330.295 C 335.879 329.649,336.464 329.065,336.464 328.996 C 336.464 328.687,336.134 328.959,335.040 330.170 M186.306 330.470 C 186.306 331.239,186.389 331.553,186.489 331.169 C 186.590 330.784,186.590 330.155,186.489 329.770 C 186.389 329.386,186.306 329.700,186.306 330.470 M65.934 333.067 C 67.792 334.935,69.403 336.464,69.513 336.464 C 69.623 336.464,68.192 334.935,66.334 333.067 C 64.475 331.199,62.865 329.670,62.755 329.670 C 62.645 329.670,64.076 331.199,65.934 333.067 M329.445 335.764 L 328.272 337.063 329.570 335.889 C 330.285 335.244,330.869 334.659,330.869 334.591 C 330.869 334.282,330.539 334.554,329.445 335.764 M72.927 339.660 C 73.786 340.539,74.578 341.259,74.688 341.259 C 74.798 341.259,74.185 340.539,73.327 339.660 C 72.468 338.781,71.676 338.062,71.566 338.062 C 71.456 338.062,72.069 338.781,72.927 339.660 M217.092 340.859 C 217.092 341.848,217.170 342.253,217.265 341.758 C 217.360 341.264,217.360 340.455,217.265 339.960 C 217.170 339.466,217.092 339.870,217.092 340.859 M212.281 341.658 C 212.281 342.428,212.363 342.742,212.463 342.358 C 212.564 341.973,212.564 341.344,212.463 340.959 C 212.363 340.574,212.281 340.889,212.281 341.658 M217.502 346.454 C 217.502 347.662,217.577 348.157,217.669 347.552 C 217.760 346.948,217.760 345.959,217.669 345.355 C 217.577 344.750,217.502 345.245,217.502 346.454 M212.680 346.853 C 212.680 347.622,212.762 347.937,212.863 347.552 C 212.963 347.168,212.963 346.538,212.863 346.154 C 212.762 345.769,212.680 346.084,212.680 346.853 M187.313 372.710 C 187.807 372.805,188.616 372.805,189.111 372.710 C 189.605 372.614,189.201 372.536,188.212 372.536 C 187.223 372.536,186.818 372.614,187.313 372.710 M209.291 372.710 C 209.785 372.805,210.594 372.805,211.089 372.710 C 211.583 372.614,211.179 372.536,210.190 372.536 C 209.201 372.536,208.796 372.614,209.291 372.710 M196.720 373.124 C 198.213 373.201,200.550 373.200,201.915 373.123 C 203.279 373.045,202.058 372.982,199.201 372.982 C 196.344 372.983,195.227 373.047,196.720 373.124 M134.266 376.756 C 134.595 376.959,135.315 377.246,135.864 377.393 C 136.558 377.579,136.680 377.548,136.264 377.290 C 135.934 377.087,135.215 376.800,134.665 376.653 C 133.971 376.467,133.849 376.498,134.266 376.756 M262.737 377.037 C 261.733 377.521,261.701 377.575,262.537 377.374 C 263.087 377.241,263.707 376.973,263.916 376.778 C 264.434 376.294,264.150 376.357,262.737 377.037 " stroke="none" fill="#9cc5dc" fill-rule="evenodd"></path><path id="path3" d="M283.979 80.251 C 283.429 80.858,283.415 80.986,283.897 80.986 C 284.218 80.986,284.397 80.851,284.296 80.687 C 284.194 80.522,284.337 80.307,284.613 80.209 C 284.889 80.110,285.009 79.914,284.879 79.773 C 284.750 79.631,284.344 79.846,283.979 80.251 M70.904 83.616 L 69.730 84.915 71.029 83.741 C 72.240 82.647,72.511 82.318,72.203 82.318 C 72.134 82.318,71.549 82.902,70.904 83.616 M277.701 87.013 L 276.324 88.511 277.822 87.134 C 279.217 85.853,279.504 85.514,279.199 85.514 C 279.132 85.514,278.458 86.189,277.701 87.013 M304.895 89.236 C 304.895 89.305,305.480 89.889,306.194 90.535 L 307.493 91.708 306.319 90.410 C 305.225 89.199,304.895 88.927,304.895 89.236 M268.110 91.409 L 266.733 92.907 268.232 91.530 C 269.627 90.248,269.914 89.910,269.609 89.910 C 269.542 89.910,268.868 90.584,268.110 91.409 M90.293 95.604 C 91.949 97.369,92.308 97.686,92.308 97.386 C 92.308 97.322,91.454 96.468,90.410 95.488 L 88.511 93.706 90.293 95.604 M86.488 96.004 L 85.315 97.303 86.613 96.129 C 87.824 95.035,88.096 94.705,87.787 94.705 C 87.718 94.705,87.134 95.290,86.488 96.004 M299.482 98.402 L 297.902 100.100 299.600 98.520 C 301.180 97.051,301.482 96.703,301.180 96.703 C 301.115 96.703,300.350 97.468,299.482 98.402 M99.883 104.795 C 100.863 105.839,101.717 106.693,101.782 106.693 C 102.082 106.693,101.764 106.335,100.000 104.679 L 98.102 102.897 99.883 104.795 M124.866 125.974 L 121.678 129.271 124.975 126.083 C 126.788 124.330,128.272 122.847,128.272 122.787 C 128.272 122.495,127.826 122.912,124.866 125.974 M26.098 193.207 C 26.100 194.525,26.175 195.017,26.264 194.299 C 26.353 193.580,26.351 192.501,26.260 191.901 C 26.168 191.300,26.096 191.888,26.098 193.207 M94.030 200.000 C 94.032 201.319,94.107 201.810,94.196 201.092 C 94.285 200.374,94.283 199.295,94.192 198.694 C 94.100 198.094,94.028 198.681,94.030 200.000 M26.098 206.793 C 26.100 208.112,26.175 208.603,26.264 207.885 C 26.353 207.167,26.351 206.088,26.260 205.487 C 26.168 204.887,26.096 205.475,26.098 206.793 M122.278 271.439 C 122.278 271.499,123.671 272.893,125.375 274.535 L 128.472 277.522 125.485 274.426 C 122.710 271.549,122.278 271.146,122.278 271.439 M315.459 328.172 L 314.286 329.471 315.584 328.297 C 316.795 327.203,317.067 326.873,316.758 326.873 C 316.689 326.873,316.105 327.458,315.459 328.172 M226.674 344.655 C 226.679 345.534,226.760 345.847,226.856 345.350 C 226.952 344.853,226.948 344.134,226.848 343.752 C 226.748 343.370,226.670 343.776,226.674 344.655 M212.687 372.703 C 213.072 372.804,213.701 372.804,214.086 372.703 C 214.471 372.603,214.156 372.520,213.387 372.520 C 212.617 372.520,212.303 372.603,212.687 372.703 M191.109 373.113 C 191.713 373.205,192.702 373.205,193.307 373.113 C 193.911 373.022,193.417 372.947,192.208 372.947 C 190.999 372.947,190.504 373.022,191.109 373.113 M205.095 373.113 C 205.699 373.205,206.688 373.205,207.293 373.113 C 207.897 373.022,207.403 372.947,206.194 372.947 C 204.985 372.947,204.491 373.022,205.095 373.113 " stroke="none" fill="#5db3d6" fill-rule="evenodd"></path><path id="path4" d="M265.915 93.207 L 264.336 94.905 266.034 93.325 C 267.613 91.856,267.916 91.508,267.614 91.508 C 267.548 91.508,266.784 92.273,265.915 93.207 M124.856 125.574 L 123.277 127.273 124.975 125.693 C 126.554 124.224,126.857 123.876,126.555 123.876 C 126.489 123.876,125.725 124.640,124.856 125.574 M123.876 273.452 C 123.876 273.520,124.461 274.105,125.175 274.750 L 126.474 275.924 125.300 274.625 C 124.206 273.415,123.876 273.143,123.876 273.452 " stroke="none" fill="#c0dcec" fill-rule="evenodd"></path><path id="path5" d="M66.508 66.434 L 65.335 67.732 66.633 66.559 C 67.844 65.465,68.116 65.135,67.807 65.135 C 67.738 65.135,67.154 65.719,66.508 66.434 M303.871 100.799 L 302.697 102.098 303.996 100.924 C 304.710 100.279,305.295 99.694,305.295 99.626 C 305.295 99.317,304.965 99.589,303.871 100.799 M157.309 110.157 C 156.939 110.527,156.972 288.820,157.343 289.049 C 157.507 289.151,157.642 248.882,157.642 199.562 C 157.642 150.243,157.627 109.890,157.609 109.890 C 157.591 109.890,157.456 110.010,157.309 110.157 M125.616 137.662 C 125.615 139.640,125.683 140.500,125.767 139.572 C 125.850 138.645,125.851 137.027,125.769 135.976 C 125.686 134.926,125.618 135.684,125.616 137.662 M67.308 155.544 L 66.134 156.843 67.433 155.669 C 68.643 154.575,68.915 154.246,68.606 154.246 C 68.537 154.246,67.953 154.830,67.308 155.544 M338.040 155.744 L 336.663 157.243 338.162 155.866 C 339.557 154.584,339.844 154.246,339.539 154.246 C 339.472 154.246,338.798 154.920,338.040 155.744 M330.070 169.185 C 330.070 169.270,330.600 169.418,331.248 169.513 C 331.895 169.608,332.334 169.538,332.223 169.358 C 332.025 169.038,330.070 168.881,330.070 169.185 M125.609 262.138 C 125.609 263.786,125.679 264.461,125.766 263.636 C 125.852 262.812,125.852 261.464,125.766 260.639 C 125.679 259.815,125.609 260.490,125.609 262.138 M119.459 325.574 L 118.082 327.073 119.580 325.696 C 120.975 324.414,121.263 324.076,120.958 324.076 C 120.891 324.076,120.216 324.750,119.459 325.574 M136.168 328.754 C 136.666 328.850,137.385 328.846,137.767 328.746 C 138.149 328.646,137.742 328.568,136.863 328.572 C 135.984 328.577,135.671 328.659,136.168 328.754 M261.039 328.747 C 261.424 328.847,262.053 328.847,262.438 328.747 C 262.822 328.646,262.507 328.564,261.738 328.564 C 260.969 328.564,260.654 328.646,261.039 328.747 M277.822 329.946 C 278.207 330.046,278.836 330.046,279.221 329.946 C 279.605 329.845,279.291 329.763,278.521 329.763 C 277.752 329.763,277.438 329.845,277.822 329.946 " stroke="none" fill="#c2d8e4" fill-rule="evenodd"></path><path id="path6" d="M243.110 137.263 C 243.110 139.900,243.175 140.927,243.253 139.545 C 243.332 138.163,243.331 136.005,243.252 134.750 C 243.173 133.494,243.109 134.625,243.110 137.263 M125.669 200.200 C 125.669 232.178,125.716 245.260,125.774 229.271 C 125.832 213.282,125.832 187.118,125.774 171.129 C 125.716 155.140,125.669 168.222,125.669 200.200 M71.229 168.507 C 71.613 168.608,72.243 168.608,72.627 168.507 C 73.012 168.407,72.697 168.324,71.928 168.324 C 71.159 168.324,70.844 168.407,71.229 168.507 M342.158 168.507 C 342.542 168.608,343.172 168.608,343.556 168.507 C 343.941 168.407,343.626 168.324,342.857 168.324 C 342.088 168.324,341.773 168.407,342.158 168.507 M10.937 195.405 C 10.937 197.712,11.003 198.656,11.084 197.502 C 11.165 196.349,11.165 194.461,11.084 193.307 C 11.003 192.153,10.937 193.097,10.937 195.405 M10.937 204.196 C 10.937 206.503,11.003 207.448,11.084 206.294 C 11.165 205.140,11.165 203.252,11.084 202.098 C 11.003 200.944,10.937 201.888,10.937 204.196 M243.110 263.137 C 243.110 265.774,243.175 266.801,243.253 265.419 C 243.332 264.037,243.331 261.879,243.252 260.624 C 243.173 259.369,243.109 260.500,243.110 263.137 M192.521 388.307 C 193.682 388.388,195.480 388.387,196.517 388.305 C 197.553 388.223,196.603 388.157,194.406 388.158 C 192.208 388.159,191.360 388.226,192.521 388.307 M202.111 388.307 C 203.273 388.388,205.071 388.387,206.107 388.305 C 207.144 388.223,206.194 388.157,203.996 388.158 C 201.798 388.159,200.950 388.226,202.111 388.307 " stroke="none" fill="#cde6f2" fill-rule="evenodd"></path><path id="path7" d="M165.330 14.769 C 164.504 14.929,163.708 15.180,163.561 15.327 C 163.415 15.473,163.821 15.493,164.465 15.372 C 165.108 15.251,166.444 14.999,167.433 14.812 C 168.716 14.570,168.888 14.474,168.032 14.475 C 167.373 14.477,166.157 14.609,165.330 14.769 M229.870 14.661 C 230.255 14.762,230.884 14.762,231.269 14.661 C 231.653 14.561,231.339 14.478,230.569 14.478 C 229.800 14.478,229.486 14.561,229.870 14.661 M232.201 14.928 C 232.293 15.006,232.997 15.186,233.766 15.327 C 234.750 15.507,234.987 15.467,234.565 15.190 C 234.024 14.835,231.805 14.589,232.201 14.928 M141.658 20.779 C 141.155 20.996,141.081 21.123,141.459 21.123 C 141.788 21.123,142.418 20.968,142.857 20.779 C 143.361 20.563,143.435 20.436,143.057 20.436 C 142.727 20.436,142.098 20.590,141.658 20.779 M270.529 26.174 C 271.079 26.488,271.708 26.745,271.928 26.745 C 272.148 26.745,271.878 26.488,271.329 26.174 C 270.779 25.860,270.150 25.603,269.930 25.603 C 269.710 25.603,269.980 25.860,270.529 26.174 M192.907 27.055 C 193.402 27.150,194.211 27.150,194.705 27.055 C 195.200 26.960,194.795 26.882,193.806 26.882 C 192.817 26.882,192.413 26.960,192.907 27.055 M204.296 27.059 C 204.900 27.151,205.889 27.151,206.494 27.059 C 207.098 26.968,206.603 26.893,205.395 26.893 C 204.186 26.893,203.691 26.968,204.296 27.059 M185.322 27.462 C 186.040 27.551,187.119 27.550,187.719 27.458 C 188.320 27.367,187.732 27.294,186.414 27.297 C 185.095 27.299,184.604 27.373,185.322 27.462 M210.896 27.462 C 211.614 27.551,212.693 27.550,213.294 27.458 C 213.894 27.367,213.307 27.294,211.988 27.297 C 210.669 27.299,210.178 27.373,210.896 27.462 M180.519 27.854 C 181.014 27.950,181.823 27.950,182.318 27.854 C 182.812 27.759,182.408 27.681,181.419 27.681 C 180.430 27.681,180.025 27.759,180.519 27.854 M216.084 27.854 C 216.578 27.950,217.388 27.950,217.882 27.854 C 218.377 27.759,217.972 27.681,216.983 27.681 C 215.994 27.681,215.589 27.759,216.084 27.854 M177.123 28.247 C 177.507 28.348,178.137 28.348,178.521 28.247 C 178.906 28.147,178.591 28.065,177.822 28.065 C 177.053 28.065,176.738 28.147,177.123 28.247 M219.880 28.247 C 220.265 28.348,220.894 28.348,221.279 28.247 C 221.663 28.147,221.349 28.065,220.579 28.065 C 219.810 28.065,219.496 28.147,219.880 28.247 M92.507 44.990 L 91.309 46.020 92.607 45.161 C 93.322 44.688,93.906 44.224,93.906 44.129 C 93.906 43.830,93.737 43.934,92.507 44.990 M212.308 50.350 C 212.308 51.558,212.382 52.053,212.474 51.449 C 212.566 50.844,212.566 49.855,212.474 49.251 C 212.382 48.646,212.308 49.141,212.308 50.350 M187.536 51.349 C 187.539 52.667,187.613 53.159,187.702 52.440 C 187.791 51.722,187.789 50.643,187.698 50.043 C 187.607 49.442,187.534 50.030,187.536 51.349 M311.688 49.283 C 311.688 49.393,312.408 50.053,313.287 50.749 C 314.166 51.446,314.885 51.925,314.885 51.815 C 314.885 51.706,314.166 51.046,313.287 50.350 C 312.408 49.653,311.688 49.174,311.688 49.283 M83.117 51.997 C 81.724 53.218,81.724 53.219,83.005 52.367 C 83.713 51.896,84.397 51.340,84.527 51.130 C 84.912 50.507,84.593 50.703,83.117 51.997 M289.111 52.155 C 289.550 52.513,290.270 52.982,290.709 53.198 L 291.508 53.591 290.709 52.940 C 290.270 52.582,289.550 52.113,289.111 51.897 L 288.312 51.504 289.111 52.155 M212.702 55.345 C 212.705 56.444,212.782 56.846,212.874 56.238 C 212.966 55.631,212.964 54.732,212.869 54.240 C 212.774 53.749,212.699 54.246,212.702 55.345 M187.936 57.343 C 187.938 58.661,188.013 59.153,188.102 58.434 C 188.191 57.716,188.189 56.637,188.098 56.037 C 188.007 55.436,187.934 56.024,187.936 57.343 M213.088 59.740 C 213.092 60.619,213.174 60.932,213.270 60.435 C 213.365 59.938,213.362 59.219,213.262 58.836 C 213.162 58.454,213.083 58.861,213.088 59.740 M188.332 62.737 C 188.332 63.946,188.406 64.441,188.498 63.836 C 188.590 63.232,188.590 62.243,188.498 61.638 C 188.406 61.034,188.332 61.528,188.332 62.737 M165.035 64.161 C 164.070 64.526,163.891 64.697,164.459 64.713 C 164.912 64.725,165.631 64.471,166.057 64.149 C 166.968 63.460,166.886 63.461,165.035 64.161 M188.720 67.932 C 188.720 68.921,188.798 69.326,188.893 68.831 C 188.989 68.337,188.989 67.527,188.893 67.033 C 188.798 66.538,188.720 66.943,188.720 67.932 M205.302 71.019 C 206.020 71.108,207.099 71.106,207.699 71.015 C 208.300 70.924,207.712 70.851,206.394 70.853 C 205.075 70.855,204.584 70.930,205.302 71.019 M249.016 72.145 C 248.346 73.614,248.474 73.928,249.198 72.592 C 249.536 71.968,249.738 71.383,249.647 71.292 C 249.555 71.200,249.271 71.584,249.016 72.145 M314.885 71.254 C 314.885 71.323,315.470 71.907,316.184 72.553 L 317.483 73.726 316.309 72.428 C 315.215 71.217,314.885 70.945,314.885 71.254 M280.320 78.721 C 277.689 81.359,275.627 83.516,275.737 83.516 C 275.847 83.516,278.089 81.359,280.719 78.721 C 283.350 76.084,285.412 73.926,285.302 73.926 C 285.192 73.926,282.950 76.084,280.320 78.721 M200.904 76.606 C 201.401 76.702,202.120 76.698,202.502 76.598 C 202.884 76.498,202.478 76.420,201.598 76.424 C 200.719 76.429,200.407 76.511,200.904 76.606 M254.638 77.522 C 254.638 78.292,254.720 78.606,254.821 78.222 C 254.921 77.837,254.921 77.208,254.821 76.823 C 254.720 76.439,254.638 76.753,254.638 77.522 M143.656 78.721 C 144.213 79.820,144.759 80.719,144.869 80.719 C 144.978 80.719,144.613 79.820,144.056 78.721 C 143.499 77.622,142.954 76.723,142.844 76.723 C 142.734 76.723,143.099 77.622,143.656 78.721 M212.088 77.405 C 212.582 77.500,213.392 77.500,213.886 77.405 C 214.381 77.310,213.976 77.232,212.987 77.232 C 211.998 77.232,211.593 77.310,212.088 77.405 M341.259 77.248 C 341.259 77.317,341.843 77.901,342.557 78.547 L 343.856 79.720 342.682 78.422 C 341.588 77.211,341.259 76.939,341.259 77.248 M132.268 80.719 C 132.716 81.598,133.173 82.318,133.283 82.318 C 133.393 82.318,133.116 81.598,132.667 80.719 C 132.219 79.840,131.762 79.121,131.652 79.121 C 131.542 79.121,131.819 79.840,132.268 80.719 M286.114 86.314 C 285.448 87.632,284.993 88.711,285.103 88.711 C 285.213 88.711,285.848 87.632,286.513 86.314 C 287.179 84.995,287.634 83.916,287.524 83.916 C 287.414 83.916,286.780 84.995,286.114 86.314 M348.452 85.914 C 349.148 86.793,349.807 87.512,349.917 87.512 C 350.027 87.512,349.547 86.793,348.851 85.914 C 348.155 85.035,347.495 84.316,347.385 84.316 C 347.276 84.316,347.755 85.035,348.452 85.914 M112.862 90.841 C 113.477 91.648,114.062 92.308,114.161 92.308 C 114.438 92.308,112.708 89.970,112.197 89.654 C 111.947 89.500,112.247 90.034,112.862 90.841 M45.155 91.908 C 44.685 92.567,44.391 93.107,44.501 93.107 C 44.611 93.107,45.085 92.567,45.554 91.908 C 46.024 91.249,46.318 90.709,46.208 90.709 C 46.098 90.709,45.624 91.249,45.155 91.908 M119.880 92.308 C 120.576 93.187,121.236 93.906,121.346 93.906 C 121.456 93.906,120.976 93.187,120.280 92.308 C 119.583 91.429,118.924 90.709,118.814 90.709 C 118.704 90.709,119.184 91.429,119.880 92.308 M265.532 93.909 C 264.581 94.901,264.474 95.197,264.916 95.607 C 265.346 96.006,265.392 95.999,265.150 95.572 C 264.961 95.239,265.266 94.604,265.965 93.874 C 266.580 93.232,266.993 92.707,266.883 92.707 C 266.773 92.707,266.165 93.248,265.532 93.909 M197.502 95.396 C 198.327 95.482,199.675 95.482,200.500 95.396 C 201.324 95.310,200.649 95.239,199.001 95.239 C 197.353 95.239,196.678 95.310,197.502 95.396 M302.897 101.299 C 301.926 102.288,301.222 103.097,301.332 103.097 C 301.442 103.097,302.326 102.288,303.297 101.299 C 304.267 100.310,304.972 99.500,304.862 99.500 C 304.752 99.500,303.868 100.310,302.897 101.299 M185.315 101.761 L 186.214 101.954 186.214 199.600 C 186.214 292.267,186.178 297.256,185.514 297.414 C 184.982 297.541,185.006 297.572,185.614 297.542 C 186.411 297.503,186.414 297.223,186.414 199.600 L 186.414 101.698 185.415 101.633 C 184.534 101.575,184.522 101.590,185.315 101.761 M156.910 110.157 C 156.540 110.527,156.573 288.820,156.943 289.049 C 157.108 289.151,157.243 248.882,157.243 199.562 C 157.243 150.243,157.228 109.890,157.209 109.890 C 157.191 109.890,157.056 110.010,156.910 110.157 M110.081 114.386 L 106.893 117.682 110.190 114.495 C 113.252 111.535,113.669 111.089,113.377 111.089 C 113.317 111.089,111.834 112.572,110.081 114.386 M69.623 119.081 C 69.623 119.850,69.705 120.165,69.806 119.780 C 69.906 119.396,69.906 118.766,69.806 118.382 C 69.705 117.997,69.623 118.312,69.623 119.081 M89.510 118.701 C 90.897 119.642,91.686 119.915,90.709 119.117 C 90.160 118.667,89.530 118.298,89.311 118.297 C 89.091 118.295,89.181 118.477,89.510 118.701 M352.481 119.680 C 352.481 119.900,352.826 120.709,353.247 121.479 C 353.668 122.248,354.012 122.697,354.012 122.478 C 354.012 122.258,353.668 121.449,353.247 120.679 C 352.826 119.910,352.481 119.461,352.481 119.680 M272.128 125.200 C 272.128 125.269,272.712 125.853,273.427 126.499 L 274.725 127.672 273.552 126.374 C 272.458 125.163,272.128 124.891,272.128 125.200 M372.473 127.273 C 372.481 127.493,372.833 128.392,373.256 129.271 C 373.678 130.150,373.912 130.420,373.775 129.870 C 373.494 128.739,372.452 126.661,372.473 127.273 M217.535 137.263 C 217.536 139.900,217.601 140.927,217.679 139.545 C 217.757 138.163,217.756 136.005,217.677 134.750 C 217.598 133.494,217.534 134.625,217.535 137.263 M243.511 137.463 C 243.511 140.210,243.574 141.334,243.653 139.960 C 243.731 138.586,243.731 136.339,243.653 134.965 C 243.574 133.591,243.511 134.715,243.511 137.463 M124.829 134.375 L 124.076 135.265 124.975 134.504 L 125.874 133.742 125.874 199.600 L 125.874 265.459 124.975 264.697 L 124.076 263.936 124.829 264.826 C 125.243 265.315,125.737 265.619,125.928 265.501 C 126.382 265.221,126.382 133.980,125.928 133.699 C 125.737 133.582,125.243 133.886,124.829 134.375 M20.422 141.101 C 19.922 142.653,19.584 143.993,19.671 144.080 C 19.758 144.167,20.237 142.968,20.737 141.416 C 21.237 139.865,21.575 138.524,21.488 138.438 C 21.401 138.351,20.921 139.549,20.422 141.101 M379.277 146.254 C 379.277 146.583,379.431 147.213,379.620 147.652 C 379.837 148.156,379.964 148.230,379.964 147.852 C 379.964 147.522,379.809 146.893,379.620 146.454 C 379.404 145.950,379.277 145.876,379.277 146.254 M365.291 151.449 C 365.291 151.778,365.445 152.408,365.634 152.847 C 365.851 153.351,365.978 153.425,365.978 153.047 C 365.978 152.717,365.823 152.088,365.634 151.648 C 365.418 151.145,365.291 151.071,365.291 151.449 M69.714 153.873 C 69.507 154.208,69.571 154.268,69.912 154.057 C 70.301 153.816,70.365 154.145,70.189 155.494 L 69.961 157.243 70.393 155.712 C 70.840 154.126,70.360 152.827,69.714 153.873 M340.423 154.129 C 339.910 154.782,339.922 154.797,340.559 154.297 C 341.182 153.809,341.264 153.852,341.305 154.696 C 341.341 155.440,341.393 155.485,341.542 154.903 C 341.828 153.793,341.088 153.282,340.423 154.129 M66.134 156.907 C 63.907 158.979,63.882 159.022,65.775 157.504 C 67.630 156.016,69.055 154.622,68.680 154.661 C 68.598 154.670,67.453 155.680,66.134 156.907 M337.063 156.905 C 335.597 158.267,335.287 158.665,336.264 157.928 C 337.769 156.793,340.001 154.627,339.630 154.661 C 339.537 154.670,338.382 155.679,337.063 156.905 M57.143 155.172 C 57.143 155.278,58.581 156.278,60.340 157.394 C 63.688 159.520,64.765 159.908,61.838 157.934 C 59.311 156.230,57.143 154.954,57.143 155.172 M328.072 155.187 C 328.072 155.291,329.016 155.957,330.170 156.666 C 331.324 157.376,332.672 158.221,333.167 158.545 C 333.661 158.868,334.066 159.038,334.066 158.923 C 334.066 158.807,332.942 158.010,331.568 157.150 C 328.198 155.041,328.072 154.970,328.072 155.187 M70.629 168.114 C 71.124 168.209,71.933 168.209,72.428 168.114 C 72.922 168.019,72.517 167.941,71.528 167.941 C 70.539 167.941,70.135 168.019,70.629 168.114 M341.558 168.114 C 342.053 168.209,342.862 168.209,343.357 168.114 C 343.851 168.019,343.447 167.941,342.458 167.941 C 341.469 167.941,341.064 168.019,341.558 168.114 M59.141 168.786 C 59.141 168.871,59.671 169.018,60.319 169.113 C 60.966 169.208,61.405 169.139,61.294 168.959 C 61.096 168.638,59.141 168.481,59.141 168.786 M330.070 168.786 C 330.070 168.871,330.609 169.019,331.269 169.116 C 331.928 169.213,332.468 169.143,332.468 168.962 C 332.468 168.780,331.928 168.631,331.269 168.631 C 330.609 168.631,330.070 168.701,330.070 168.786 M54.653 169.321 C 55.371 169.410,56.450 169.408,57.050 169.316 C 57.651 169.225,57.063 169.153,55.744 169.155 C 54.426 169.157,53.934 169.232,54.653 169.321 M325.582 169.321 C 326.300 169.410,327.379 169.408,327.979 169.316 C 328.580 169.225,327.992 169.153,326.673 169.155 C 325.355 169.157,324.863 169.232,325.582 169.321 M384.908 171.429 C 384.908 172.198,384.990 172.512,385.091 172.128 C 385.191 171.743,385.191 171.114,385.091 170.729 C 384.990 170.345,384.908 170.659,384.908 171.429 M385.307 174.226 C 385.307 174.995,385.390 175.310,385.490 174.925 C 385.591 174.540,385.591 173.911,385.490 173.526 C 385.390 173.142,385.307 173.457,385.307 174.226 M27.266 178.621 C 27.266 179.391,27.348 179.705,27.448 179.321 C 27.549 178.936,27.549 178.307,27.448 177.922 C 27.348 177.537,27.266 177.852,27.266 178.621 M371.330 182.018 C 371.334 182.897,371.416 183.210,371.511 182.713 C 371.607 182.216,371.603 181.496,371.503 181.114 C 371.403 180.732,371.325 181.139,371.330 182.018 M371.752 186.813 C 371.754 188.132,371.829 188.623,371.918 187.905 C 372.007 187.187,372.005 186.108,371.914 185.507 C 371.823 184.907,371.750 185.495,371.752 186.813 M94.806 188.412 C 94.811 189.291,94.892 189.603,94.988 189.106 C 95.083 188.609,95.080 187.890,94.980 187.508 C 94.880 187.126,94.802 187.532,94.806 188.412 M100.792 189.011 C 100.792 189.780,100.874 190.095,100.975 189.710 C 101.075 189.326,101.075 188.696,100.975 188.312 C 100.874 187.927,100.792 188.242,100.792 189.011 M297.403 190.410 C 297.408 191.289,297.490 191.601,297.585 191.104 C 297.681 190.607,297.677 189.888,297.577 189.506 C 297.477 189.124,297.399 189.530,297.403 190.410 M94.425 193.007 C 94.425 194.216,94.500 194.710,94.592 194.106 C 94.683 193.501,94.683 192.512,94.592 191.908 C 94.500 191.304,94.425 191.798,94.425 193.007 M372.199 200.000 C 372.200 205.055,372.257 207.068,372.327 204.473 C 372.396 201.878,372.396 197.742,372.326 195.282 C 372.256 192.822,372.199 194.945,372.199 200.000 M100.419 194.206 C 100.419 195.415,100.494 195.909,100.586 195.305 C 100.677 194.700,100.677 193.711,100.586 193.107 C 100.494 192.502,100.419 192.997,100.419 194.206 M297.864 199.600 C 297.865 203.117,297.926 204.502,298.000 202.678 C 298.074 200.855,298.074 197.978,297.999 196.285 C 297.924 194.592,297.864 196.084,297.864 199.600 M303.831 199.800 C 303.831 201.449,303.901 202.123,303.987 201.299 C 304.074 200.475,304.074 199.126,303.987 198.302 C 303.901 197.478,303.831 198.152,303.831 199.800 M100.419 204.995 C 100.419 206.204,100.494 206.698,100.586 206.094 C 100.677 205.490,100.677 204.500,100.586 203.896 C 100.494 203.292,100.419 203.786,100.419 204.995 M94.425 206.993 C 94.425 208.202,94.500 208.696,94.592 208.092 C 94.683 207.488,94.683 206.499,94.592 205.894 C 94.500 205.290,94.425 205.784,94.425 206.993 M297.412 208.991 C 297.412 209.980,297.489 210.385,297.585 209.890 C 297.680 209.396,297.680 208.586,297.585 208.092 C 297.489 207.597,297.412 208.002,297.412 208.991 M100.792 210.190 C 100.792 210.959,100.874 211.274,100.975 210.889 C 101.075 210.504,101.075 209.875,100.975 209.491 C 100.874 209.106,100.792 209.421,100.792 210.190 M94.798 211.788 C 94.798 212.557,94.880 212.872,94.981 212.488 C 95.081 212.103,95.081 211.474,94.981 211.089 C 94.880 210.704,94.798 211.019,94.798 211.788 M371.752 213.187 C 371.754 214.505,371.829 214.997,371.918 214.279 C 372.007 213.560,372.005 212.481,371.914 211.881 C 371.823 211.280,371.750 211.868,371.752 213.187 M371.330 217.982 C 371.334 218.861,371.416 219.174,371.511 218.677 C 371.607 218.180,371.603 217.460,371.503 217.078 C 371.403 216.696,371.325 217.103,371.330 217.982 M27.266 220.979 C 27.266 221.748,27.348 222.063,27.448 221.678 C 27.549 221.294,27.549 220.664,27.448 220.280 C 27.348 219.895,27.266 220.210,27.266 220.979 M385.307 225.774 C 385.307 226.543,385.390 226.858,385.490 226.474 C 385.591 226.089,385.591 225.460,385.490 225.075 C 385.390 224.690,385.307 225.005,385.307 225.774 M384.908 228.571 C 384.908 229.341,384.990 229.655,385.091 229.271 C 385.191 228.886,385.191 228.257,385.091 227.872 C 384.990 227.488,384.908 227.802,384.908 228.571 M298.182 233.247 C 297.932 234.060,297.794 234.791,297.875 234.872 C 297.956 234.952,298.238 234.365,298.501 233.566 C 298.765 232.768,298.903 232.037,298.808 231.942 C 298.713 231.847,298.431 232.434,298.182 233.247 M14.872 237.762 C 14.868 238.312,15.009 239.211,15.185 239.760 C 15.615 241.103,15.615 239.652,15.185 237.962 C 14.911 236.885,14.879 236.865,14.872 237.762 M33.223 249.750 C 33.223 250.080,33.378 250.709,33.566 251.149 C 33.783 251.653,33.910 251.726,33.910 251.349 C 33.910 251.019,33.755 250.390,33.566 249.950 C 33.350 249.446,33.223 249.372,33.223 249.750 M19.642 256.144 C 19.642 256.474,19.974 257.642,20.380 258.741 C 20.785 259.840,21.117 260.470,21.117 260.140 C 21.117 259.810,20.785 258.641,20.380 257.542 C 19.974 256.444,19.642 255.814,19.642 256.144 M285.714 258.541 C 285.245 259.201,284.951 259.740,285.060 259.740 C 285.170 259.740,285.644 259.201,286.114 258.541 C 286.583 257.882,286.878 257.343,286.768 257.343 C 286.658 257.343,286.184 257.882,285.714 258.541 M217.535 263.137 C 217.536 265.774,217.601 266.801,217.679 265.419 C 217.757 264.037,217.756 261.879,217.677 260.624 C 217.598 259.369,217.534 260.500,217.535 263.137 M243.511 263.337 C 243.511 266.084,243.574 267.208,243.653 265.834 C 243.731 264.461,243.731 262.213,243.653 260.839 C 243.574 259.466,243.511 260.589,243.511 263.337 M360.748 295.804 C 359.873 297.152,359.089 298.757,359.527 298.302 C 360.088 297.719,361.736 294.905,361.517 294.905 C 361.415 294.905,361.068 295.310,360.748 295.804 M189.510 304.382 C 190.115 304.474,191.104 304.474,191.708 304.382 C 192.313 304.291,191.818 304.216,190.609 304.216 C 189.401 304.216,188.906 304.291,189.510 304.382 M207.098 304.383 C 207.706 304.474,208.605 304.472,209.096 304.377 C 209.588 304.282,209.091 304.207,207.992 304.210 C 206.893 304.213,206.491 304.291,207.098 304.383 M196.919 304.792 C 198.301 304.870,200.459 304.869,201.714 304.790 C 202.969 304.711,201.838 304.647,199.201 304.648 C 196.563 304.649,195.537 304.714,196.919 304.792 M45.155 308.092 C 45.624 308.751,46.098 309.291,46.208 309.291 C 46.318 309.291,46.024 308.751,45.554 308.092 C 45.085 307.433,44.611 306.893,44.501 306.893 C 44.391 306.893,44.685 307.433,45.155 308.092 M130.353 316.484 C 126.529 319.793,127.227 319.676,123.946 317.562 C 120.418 315.288,120.280 315.207,120.280 315.422 C 120.280 315.656,126.534 319.680,126.897 319.680 C 127.044 319.680,128.615 318.419,130.388 316.877 C 132.704 314.863,133.702 314.216,133.932 314.579 C 134.165 314.945,134.255 314.892,134.260 314.386 C 134.269 313.259,133.765 313.530,130.353 316.484 M275.425 316.929 C 274.063 317.801,273.622 318.387,274.825 317.726 C 275.742 317.222,277.178 316.111,276.923 316.103 C 276.813 316.100,276.139 316.472,275.425 316.929 M278.166 317.727 C 277.920 318.433,277.789 319.081,277.874 319.166 C 277.960 319.252,278.231 318.744,278.477 318.038 C 278.723 317.331,278.855 316.684,278.769 316.598 C 278.684 316.513,278.412 317.021,278.166 317.727 M121.700 322.538 C 121.906 323.428,121.667 323.851,120.213 325.173 C 116.521 328.531,115.617 329.414,116.894 328.417 C 122.070 324.375,122.791 323.454,121.860 322.078 C 121.556 321.629,121.516 321.745,121.700 322.538 M131.868 322.382 C 131.868 322.765,133.838 324.307,135.764 325.430 C 137.118 326.220,136.038 325.146,134.565 324.237 C 133.631 323.661,132.642 322.905,132.368 322.558 C 132.093 322.210,131.868 322.131,131.868 322.382 M264.036 324.084 C 262.020 325.350,261.360 326.179,263.263 325.055 C 264.596 324.268,266.418 322.895,266.134 322.894 C 266.024 322.893,265.080 323.429,264.036 324.084 M277.168 324.756 C 280.565 327.811,282.783 329.439,280.120 326.924 C 278.691 325.574,277.163 324.283,276.723 324.054 C 276.284 323.825,276.484 324.141,277.168 324.756 M175.539 326.673 C 175.542 327.772,175.619 328.174,175.711 327.567 C 175.803 326.960,175.801 326.060,175.706 325.569 C 175.611 325.077,175.536 325.574,175.539 326.673 M136.164 328.354 C 136.658 328.449,137.468 328.449,137.962 328.354 C 138.457 328.259,138.052 328.181,137.063 328.181 C 136.074 328.181,135.669 328.259,136.164 328.354 M260.440 328.354 C 260.934 328.449,261.743 328.449,262.238 328.354 C 262.732 328.259,262.328 328.181,261.339 328.181 C 260.350 328.181,259.945 328.259,260.440 328.354 M130.536 328.738 C 130.390 328.884,130.272 329.199,130.276 329.437 C 130.280 329.716,130.388 329.703,130.581 329.400 C 130.745 329.142,131.596 328.858,132.473 328.768 L 134.066 328.606 132.434 328.539 C 131.537 328.502,130.683 328.591,130.536 328.738 M266.106 328.754 C 267.029 328.848,267.758 329.157,267.866 329.500 C 267.984 329.875,268.028 329.832,267.988 329.378 C 267.939 328.830,267.545 328.663,266.227 328.632 L 264.530 328.593 266.106 328.754 M121.383 329.553 C 121.880 329.649,122.600 329.645,122.982 329.545 C 123.364 329.445,122.957 329.367,122.078 329.372 C 121.199 329.376,120.886 329.458,121.383 329.553 M275.629 329.553 C 276.126 329.649,276.845 329.645,277.227 329.545 C 277.609 329.445,277.203 329.367,276.324 329.372 C 275.445 329.376,275.132 329.458,275.629 329.553 M272.572 331.713 C 272.326 332.419,272.194 333.067,272.280 333.152 C 272.365 333.238,272.636 332.730,272.883 332.024 C 273.129 331.317,273.260 330.670,273.175 330.584 C 273.089 330.499,272.818 331.007,272.572 331.713 M206.708 332.667 C 206.711 333.766,206.788 334.168,206.880 333.561 C 206.972 332.954,206.970 332.054,206.875 331.563 C 206.780 331.071,206.705 331.568,206.708 332.667 M168.007 332.967 L 166.833 334.266 168.132 333.092 C 169.342 331.998,169.614 331.668,169.306 331.668 C 169.237 331.668,168.652 332.253,168.007 332.967 M211.908 334.466 C 211.908 335.674,211.983 336.169,212.074 335.564 C 212.166 334.960,212.166 333.971,212.074 333.367 C 211.983 332.762,211.908 333.257,211.908 334.466 M171.603 335.365 L 170.430 336.663 171.728 335.490 C 172.939 334.396,173.211 334.066,172.902 334.066 C 172.833 334.066,172.249 334.650,171.603 335.365 M181.139 336.464 C 181.139 337.672,181.214 338.167,181.305 337.562 C 181.397 336.958,181.397 335.969,181.305 335.365 C 181.214 334.760,181.139 335.255,181.139 336.464 M207.094 337.862 C 207.098 338.741,207.180 339.054,207.276 338.557 C 207.371 338.060,207.368 337.340,207.268 336.958 C 207.168 336.576,207.089 336.983,207.094 337.862 M180.739 342.058 C 180.739 343.267,180.814 343.761,180.906 343.157 C 180.997 342.552,180.997 341.563,180.906 340.959 C 180.814 340.355,180.739 340.849,180.739 342.058 M231.089 344.056 C 231.089 345.265,231.164 345.759,231.255 345.155 C 231.347 344.550,231.347 343.561,231.255 342.957 C 231.164 342.353,231.089 342.847,231.089 344.056 M194.706 343.856 C 194.711 344.735,194.792 345.048,194.888 344.551 C 194.984 344.054,194.980 343.334,194.880 342.952 C 194.780 342.570,194.702 342.977,194.706 343.856 M89.910 353.009 C 89.910 353.118,90.719 353.765,91.708 354.446 C 92.697 355.126,93.506 355.593,93.506 355.483 C 93.506 355.373,92.697 354.726,91.708 354.046 C 90.719 353.365,89.910 352.899,89.910 353.009 M186.913 353.928 C 187.408 354.024,188.217 354.024,188.711 353.928 C 189.206 353.833,188.801 353.755,187.812 353.755 C 186.823 353.755,186.419 353.833,186.913 353.928 M209.291 353.928 C 209.785 354.024,210.594 354.024,211.089 353.928 C 211.583 353.833,211.179 353.755,210.190 353.755 C 209.201 353.755,208.796 353.833,209.291 353.928 M173.926 371.504 C 174.311 371.605,174.940 371.605,175.325 371.504 C 175.709 371.404,175.395 371.321,174.625 371.321 C 173.856 371.321,173.541 371.404,173.926 371.504 M223.077 371.504 C 223.462 371.605,224.091 371.605,224.476 371.504 C 224.860 371.404,224.545 371.321,223.776 371.321 C 223.007 371.321,222.692 371.404,223.077 371.504 M177.123 371.904 C 177.507 372.004,178.137 372.004,178.521 371.904 C 178.906 371.803,178.591 371.721,177.822 371.721 C 177.053 371.721,176.738 371.803,177.123 371.904 M219.880 371.904 C 220.265 372.004,220.894 372.004,221.279 371.904 C 221.663 371.803,221.349 371.721,220.579 371.721 C 219.810 371.721,219.496 371.803,219.880 371.904 M258.541 378.222 C 257.113 378.737,256.134 379.172,256.366 379.190 C 256.901 379.229,261.738 377.605,261.738 377.386 C 261.738 377.117,261.259 377.242,258.541 378.222 M140.460 378.821 C 141.558 379.227,142.727 379.558,143.057 379.558 C 143.387 379.558,142.757 379.227,141.658 378.821 C 140.559 378.416,139.391 378.084,139.061 378.084 C 138.731 378.084,139.361 378.416,140.460 378.821 M232.767 384.815 C 231.698 385.087,231.676 385.120,232.567 385.120 C 233.117 385.120,234.106 384.983,234.765 384.815 C 235.835 384.543,235.856 384.510,234.965 384.510 C 234.416 384.510,233.427 384.647,232.767 384.815 " stroke="none" fill="#7c9cb4" fill-rule="evenodd"></path><path id="path8" d="M196.703 11.885 C 198.187 11.962,200.614 11.962,202.098 11.885 C 203.581 11.808,202.368 11.745,199.401 11.745 C 196.434 11.745,195.220 11.808,196.703 11.885 M204.695 27.448 C 205.080 27.549,205.709 27.549,206.094 27.448 C 206.479 27.348,206.164 27.266,205.395 27.266 C 204.625 27.266,204.311 27.348,204.695 27.448 M185.415 46.908 C 185.415 46.993,185.945 47.140,186.592 47.235 C 187.240 47.330,187.679 47.261,187.568 47.081 C 187.370 46.760,185.415 46.603,185.415 46.908 M208.301 55.145 C 208.301 56.134,208.379 56.538,208.474 56.044 C 208.569 55.549,208.569 54.740,208.474 54.246 C 208.379 53.751,208.301 54.156,208.301 55.145 M183.509 63.536 C 183.509 64.306,183.592 64.620,183.692 64.236 C 183.793 63.851,183.793 63.222,183.692 62.837 C 183.592 62.453,183.509 62.767,183.509 63.536 M280.700 78.022 L 279.121 79.720 280.819 78.141 C 282.399 76.672,282.701 76.324,282.399 76.324 C 282.333 76.324,281.569 77.088,280.700 78.022 M274.700 84.016 L 273.526 85.315 274.825 84.141 C 275.539 83.496,276.124 82.911,276.124 82.842 C 276.124 82.534,275.794 82.805,274.700 84.016 M301.084 96.404 L 299.101 98.501 301.199 96.519 C 303.148 94.676,303.480 94.306,303.182 94.306 C 303.119 94.306,302.175 95.250,301.084 96.404 M98.102 102.697 C 98.960 103.576,99.753 104.296,99.862 104.296 C 99.972 104.296,99.360 103.576,98.501 102.697 C 97.643 101.818,96.851 101.099,96.741 101.099 C 96.631 101.099,97.243 101.818,98.102 102.697 M292.886 104.196 L 291.508 105.694 293.007 104.317 C 294.402 103.035,294.689 102.697,294.384 102.697 C 294.317 102.697,293.643 103.372,292.886 104.196 M217.979 199.600 C 217.979 252.787,218.025 274.605,218.082 248.084 C 218.139 221.563,218.139 178.047,218.082 151.381 C 218.025 124.715,217.979 146.414,217.979 199.600 M298.277 106.394 L 297.103 107.692 298.402 106.519 C 299.116 105.873,299.700 105.289,299.700 105.220 C 299.700 104.911,299.371 105.183,298.277 106.394 M109.069 108.991 L 107.692 110.490 109.191 109.112 C 110.015 108.355,110.689 107.681,110.689 107.614 C 110.689 107.309,110.351 107.596,109.069 108.991 M100.699 112.488 C 101.445 113.257,102.145 113.886,102.255 113.886 C 102.365 113.886,101.844 113.257,101.099 112.488 C 100.353 111.718,99.653 111.089,99.544 111.089 C 99.434 111.089,99.954 111.718,100.699 112.488 M111.673 113.187 L 109.690 115.285 111.788 113.302 C 112.942 112.211,113.886 111.267,113.886 111.204 C 113.886 110.906,113.516 111.237,111.673 113.187 M242.957 121.997 L 243.156 132.867 243.263 122.304 C 243.322 116.495,243.232 111.604,243.064 111.435 C 242.895 111.266,242.847 116.019,242.957 121.997 M121.653 128.771 L 120.480 130.070 121.778 128.896 C 122.493 128.251,123.077 127.666,123.077 127.598 C 123.077 127.289,122.747 127.561,121.653 128.771 M243.152 200.200 C 243.152 232.398,243.199 245.569,243.257 229.471 C 243.315 213.372,243.315 187.028,243.257 170.929 C 243.199 154.830,243.152 168.002,243.152 200.200 M11.290 186.014 C 11.294 186.893,11.376 187.206,11.471 186.709 C 11.567 186.212,11.563 185.492,11.463 185.110 C 11.363 184.728,11.285 185.135,11.290 186.014 M26.482 195.005 C 26.482 195.994,26.560 196.399,26.656 195.904 C 26.751 195.410,26.751 194.600,26.656 194.106 C 26.560 193.611,26.482 194.016,26.482 195.005 M26.482 204.995 C 26.482 205.984,26.560 206.389,26.656 205.894 C 26.751 205.400,26.751 204.590,26.656 204.096 C 26.560 203.601,26.482 204.006,26.482 204.995 M11.298 213.786 C 11.298 214.775,11.376 215.180,11.471 214.685 C 11.566 214.191,11.566 213.382,11.471 212.887 C 11.376 212.393,11.298 212.797,11.298 213.786 M242.957 277.803 C 242.847 283.451,242.895 287.935,243.064 287.766 C 243.233 287.597,243.323 282.975,243.263 277.495 L 243.156 267.532 242.957 277.803 M269.709 277.622 L 268.332 279.121 269.830 277.744 C 271.225 276.462,271.512 276.124,271.207 276.124 C 271.140 276.124,270.466 276.798,269.709 277.622 M268.332 316.432 C 268.991 317.160,270.070 318.128,270.729 318.583 C 272.146 319.560,271.826 319.215,269.131 316.857 C 267.655 315.565,267.446 315.454,268.332 316.432 M133.866 323.422 C 133.866 323.532,134.406 324.006,135.065 324.476 C 135.724 324.945,136.264 325.239,136.264 325.129 C 136.264 325.019,135.724 324.545,135.065 324.076 C 134.406 323.606,133.866 323.312,133.866 323.422 M276.923 323.801 C 276.923 323.870,277.507 324.455,278.222 325.100 L 279.520 326.274 278.347 324.975 C 277.253 323.764,276.923 323.493,276.923 323.801 M201.899 333.467 C 201.903 334.346,201.985 334.658,202.081 334.161 C 202.176 333.664,202.173 332.945,202.073 332.563 C 201.973 332.181,201.895 332.587,201.899 333.467 M226.283 344.855 C 226.283 345.844,226.361 346.249,226.456 345.754 C 226.551 345.260,226.551 344.451,226.456 343.956 C 226.361 343.462,226.283 343.866,226.283 344.855 M192.907 372.710 C 193.402 372.805,194.211 372.805,194.705 372.710 C 195.200 372.614,194.795 372.536,193.806 372.536 C 192.817 372.536,192.413 372.614,192.907 372.710 M203.696 372.710 C 204.191 372.805,205.000 372.805,205.495 372.710 C 205.989 372.614,205.584 372.536,204.595 372.536 C 203.606 372.536,203.202 372.614,203.696 372.710 M184.116 387.894 C 184.610 387.990,185.420 387.990,185.914 387.894 C 186.409 387.799,186.004 387.721,185.015 387.721 C 184.026 387.721,183.621 387.799,184.116 387.894 M212.488 387.894 C 212.982 387.990,213.791 387.990,214.286 387.894 C 214.780 387.799,214.376 387.721,213.387 387.721 C 212.398 387.721,211.993 387.799,212.488 387.894 " stroke="none" fill="#e0eef6" fill-rule="evenodd"></path></g></svg>